<svg width="6" height="11" viewBox="0 0 6 11" fill="none" xmlns="http://www.w3.org/2000/svg">
<path d="M5.74713 10.7292C6.08429 10.3682 6.08429 9.78294 5.74713 9.42194L1.47381 4.84635C1.13666 4.48534 0.590022 4.48534 0.252867 4.84635C-0.0842891 5.20735 -0.0842891 5.79265 0.252867 6.15366L4.52619 10.7292C4.86334 11.0903 5.40998 11.0903 5.74713 10.7292Z" fill="#363438"/>
<path d="M0.252867 6.15366C0.590022 6.51466 1.13664 6.51466 1.4738 6.15365L5.74711 1.57806C6.08427 1.21706 6.08427 0.631758 5.74711 0.270753C5.40996 -0.090251 4.86332 -0.090251 4.52617 0.270753L0.252867 4.84635C-0.0842891 5.20735 -0.0842891 5.79265 0.252867 6.15366Z" fill="#363438"/>
</svg>
