<svg width="17" height="22" xmlns="http://www.w3.org/2000/svg" fill="none">

 <g>
  <title>Layer 1</title>
  <path id="svg_2" fill="white" d="m8.71637,1.2562c-2.2888,0 -4.1509,1.7096 -4.1509,3.8109l0,6.4762c0,2.1013 1.8621,3.8109 4.1509,3.8109c2.2888,0 4.151,-1.7195 4.151,-3.8329l0,-6.4542c0,-2.1013 -1.8619,-3.8109 -4.151,-3.8109zm0.1401,8.8362c1.587,0.8819 2.9348,0.3283 1.2822,-0.4237c-0.1217,-0.0553 -0.2546,-0.0867 -0.3998,-0.0867c-0.8884,0 -0.368,-1.1042 0.2006,-2.2883c0.5665,-1.1794 -0.2591,-2.215 -1.5675,-2.2192c-1.3084,-0.0041 -1.8061,-0.0376 -0.6951,0.6534c0.3275,0.2036 0.6866,0.3541 1.062,0.3541c0.7378,0 -0.105,0.1528 -1.1481,0.4726c-1.7359,0.5321 -1.3677,2.0744 0.2193,2.9563l1.0464,0.5815z"/>
  <path id="svg_3" fill="white" d="m9.43627,17.9904c0,-0.3975 -0.3223,-0.7198 -0.7198,-0.7198c-0.3976,0 -0.7199,0.3223 -0.7199,0.7198l0,1.5562c0,0.3975 0.3223,0.7198 0.7199,0.7198c0.3975,0 0.7198,-0.3223 0.7198,-0.7198l0,-1.5562z"/>
  <path id="svg_4" fill="white" d="m11.69167,19.4514l-5.9505,0c-0.3976,0 -0.7198,0.2958 -0.7198,0.6608c0,0.365 0.3222,0.6608 0.7198,0.6608l5.9505,0c0.3976,0 0.7198,-0.2958 0.7198,-0.6608c0,-0.365 -0.3222,-0.6608 -0.7198,-0.6608z"/>
  <path id="svg_5" fill="white" d="m14.78687,8.2832c-0.3975,0 -0.7198,0.2958 -0.7198,0.6608l0,2.5993c0,2.7086 -2.4001,4.9123 -5.3507,4.9123c-2.9505,0 -5.3506,-2.2037 -5.3506,-4.9123l0,-2.5993c0,-0.365 -0.3223,-0.6608 -0.7199,-0.6608c-0.3975,0 -0.7198,0.2958 -0.7198,0.6608l0,2.5993c0,3.4375 3.0461,6.234 6.7903,6.234c3.7443,0 6.7903,-2.7965 6.7903,-6.234l0,-2.5993c0,-0.365 -0.3222,-0.6608 -0.7198,-0.6608z"/>
 </g>
</svg>