<svg width="20" height="17" viewBox="0 0 20 17" fill="none" xmlns="http://www.w3.org/2000/svg">
<path d="M11.9447 2.39692C11.9447 1.07525 10.8695 0 9.5478 0C8.22613 0 7.15088 1.07525 7.15088 2.39692C7.15088 3.7186 8.22613 4.79385 9.5478 4.79385C10.8695 4.79385 11.9447 3.7186 11.9447 2.39692ZM8.02892 2.39692C8.02892 1.5595 8.71046 0.87796 9.54788 0.87796C10.3853 0.87796 11.0668 1.5595 11.0668 2.39692C11.0668 3.23434 10.3853 3.91589 9.54788 3.91589C8.71046 3.91589 8.02892 3.23434 8.02892 2.39692Z" fill="#838383"/>
<path d="M5.99951 7.80022H6.87747C6.87747 6.7926 7.69727 5.97269 8.705 5.97269H10.3921C11.3997 5.97269 12.2196 6.79249 12.2196 7.80022H13.0976C13.0976 6.30834 11.884 5.09473 10.3921 5.09473H8.705C7.21313 5.09502 5.99951 6.3085 5.99951 7.80022Z" fill="#838383"/>
<path d="M5.94585 10.6059C5.94585 9.28423 4.87061 8.20898 3.54893 8.20898C2.2271 8.20898 1.15186 9.28408 1.15186 10.6059C1.15186 11.9277 2.2271 13.0031 3.54878 13.0031C4.87046 13.0031 5.94585 11.9277 5.94585 10.6059ZM2.02966 10.6059C2.02966 9.76849 2.71121 9.08694 3.54863 9.08694C4.38605 9.08694 5.06759 9.76849 5.06759 10.6059C5.06759 11.4436 4.38605 12.1252 3.54863 12.1252C2.71121 12.1252 2.02966 11.4436 2.02966 10.6059Z" fill="#838383"/>
<path d="M0 16.0092H0.87796C0.87796 15.0016 1.69776 14.1817 2.70549 14.1817H4.39257C5.40018 14.1817 6.2201 15.0015 6.2201 16.0092H7.09806C7.09806 14.5173 5.88444 13.3037 4.39257 13.3037H2.70549C1.21362 13.3037 0 14.5173 0 16.0092Z" fill="#838383"/>
<path d="M17.9444 10.6059C17.9444 9.28423 16.8691 8.20898 15.5474 8.20898C14.2258 8.20898 13.1505 9.28423 13.1505 10.6059C13.1505 11.9277 14.2258 13.0031 15.5474 13.0031C16.8691 13.0031 17.9444 11.9277 17.9444 10.6059ZM14.0282 10.6059C14.0282 9.76849 14.7097 9.08694 15.5471 9.08694C16.3846 9.08694 17.0661 9.76849 17.0661 10.6059C17.0661 11.4436 16.3846 12.1252 15.5471 12.1252C14.7097 12.1252 14.0282 11.4436 14.0282 10.6059Z" fill="#838383"/>
<path d="M19.0961 16.0092C19.0961 14.5173 17.8825 13.3037 16.3906 13.3037H14.7035C13.2117 13.3037 11.998 14.5173 11.998 16.0092H12.876C12.876 15.0016 13.6958 14.1817 14.7035 14.1817H16.3906C17.3982 14.1817 18.2181 15.0015 18.2181 16.0092H19.0961Z" fill="#838383"/>
</svg>
