<svg width="17" height="11" xmlns="http://www.w3.org/2000/svg" fill="none">

 <g>
  <title>Layer 1</title>
  <path id="svg_2" fill="#B3B3B3" d="m3.46805,5.40587l-1.25941,1.679c-0.16567,0.221 -0.47902,0.266 -0.7,0.1c-0.22094,-0.166 -0.26558,-0.479 -0.09992,-0.7l1.20709,-1.61c-0.71776,-0.483 -1.43396,-1.058 -2.14825,-1.724c-0.20193,-0.189 -0.21292,-0.505 -0.02441,-0.707c0.18834,-0.202 0.50486,-0.213 0.7066,-0.024c4.80801,4.487 9.50979,4.487 14.31779,0c0.2017,-0.189 0.5182,-0.178 0.7066,0.024c0.1885,0.202 0.1775,0.518 -0.0244,0.707c-0.7143,0.666 -1.4305,1.241 -2.1483,1.724l1.2071,1.61c0.1657,0.221 0.121,0.534 -0.0999,0.7c-0.221,0.166 -0.5343,0.121 -0.7,-0.1l-1.2594,-1.679c-0.5469,0.312 -1.0945,0.572 -1.6425,0.778l0.7662,1.915c0.1025,0.257 -0.0223,0.548 -0.2787,0.65c-0.2563,0.103 -0.5474,-0.022 -0.6499,-0.278l-0.7924,-1.982c-0.58092,0.154 -1.16212,0.247 -1.74337,0.281l0,2.015c0,0.276 -0.22373,0.5 -0.49995,0.5c-0.27622,0 -0.49995,-0.224 -0.49995,-0.5l0,-2.015c-0.58125,-0.034 -1.16245,-0.127 -1.74334,-0.281l-0.7924,1.982c-0.10254,0.256 -0.39359,0.381 -0.64996,0.278c-0.25634,-0.102 -0.3812,-0.393 -0.27866,-0.65l0.76624,-1.915c-0.54807,-0.206 -1.09566,-0.466 -1.64253,-0.778l0.00003,0z"/>
 </g>
</svg>