<svg width="17" height="16" viewBox="0 0 17 16" fill="none" xmlns="http://www.w3.org/2000/svg">
<path opacity="0.5" fill-rule="evenodd" clip-rule="evenodd" d="M10.2617 2.16929C10.2519 2.17737 10.2427 2.18597 10.233 2.19457C10.2237 2.20381 10.2141 2.21305 10.2055 2.22217L0.823924 11.021C0.636985 11.1965 0.515274 11.4247 0.477338 11.6702L0.0127155 14.685C-0.0428185 15.0439 0.085579 15.4066 0.358208 15.6631C0.630838 15.9196 1.0166 16.0403 1.39864 15.988L4.7515 15.5292C4.90009 15.5246 5.04746 15.4687 5.16114 15.3618L16.6407 4.59545C17.1132 4.15276 17.1205 3.43519 16.6577 2.98327L13.9613 0.351984C13.7333 0.130068 13.421 0.00300558 13.0927 4.84212e-05C12.7651 -0.00277524 12.4496 0.118 12.2179 0.335292L10.2617 2.16929ZM10.6632 3.41645L1.68692 11.8352L1.2223 14.85L4.44514 14.4089L13.4044 6.00699L10.6632 3.41645ZM11.5296 2.60465L14.2699 5.19499L15.7774 3.7811L13.081 1.14982L11.5296 2.60465Z" fill="white"/>
</svg>
