<svg width="19" height="12" viewBox="0 0 19 12" fill="none" xmlns="http://www.w3.org/2000/svg">
<path d="M17.8708 10.8591C17.2695 11.4962 16.2946 11.4962 15.6933 10.8591L8.07207 2.78452C7.47077 2.14745 7.47077 1.11456 8.07207 0.477492C8.67336 -0.159575 9.64826 -0.159575 10.2496 0.477492L17.8708 8.55209C18.4721 9.18915 18.4721 10.222 17.8708 10.8591Z" fill="#363438"/>
<path d="M10.2496 0.477492C10.8509 1.11456 10.8509 2.14741 10.2496 2.78448L2.62832 10.8591C2.02702 11.4961 1.05212 11.4961 0.450821 10.8591C-0.150478 10.222 -0.150478 9.18912 0.450821 8.55205L8.07207 0.477492C8.67336 -0.159575 9.64826 -0.159575 10.2496 0.477492Z" fill="#363438"/>
</svg>
