<svg width="7" height="12" viewBox="0 0 7 12" fill="none" xmlns="http://www.w3.org/2000/svg">
<path d="M5.86558 11.2803C6.20968 10.9007 6.20968 10.2853 5.86558 9.9058L1.50418 5.09512C1.16008 4.71557 0.602175 4.71557 0.25807 5.09512C-0.0860338 5.47467 -0.0860338 6.09005 0.25807 6.4696L4.61947 11.2803C4.96357 11.6598 5.52147 11.6598 5.86558 11.2803Z" fill="white"/>
<path d="M0.25807 6.4696C0.602175 6.84915 1.16006 6.84915 1.50416 6.4696L5.86556 1.65892C6.20966 1.27937 6.20966 0.66399 5.86556 0.284438C5.52146 -0.0951138 4.96355 -0.0951138 4.61945 0.284438L0.25807 5.09512C-0.0860338 5.47467 -0.0860338 6.09005 0.25807 6.4696Z" fill="white"/>
</svg>
