<svg width="7" height="13" viewBox="0 0 7 13" fill="none" xmlns="http://www.w3.org/2000/svg">
<path d="M6.63755 5.84387L1.29823 0.229908C0.987421 -0.0766439 0.511979 -0.0766439 0.219371 0.229908C-0.0731847 0.53646 -0.0731847 1.05377 0.219371 1.36038L5.02841 6.39949L0.219371 11.4386C-0.0731847 11.7643 -0.0731847 12.2625 0.219371 12.5691C0.511926 12.8756 0.987351 12.8756 1.29823 12.5691L6.63755 6.9743C6.93011 6.64863 6.93011 6.15044 6.63755 5.84383V5.84387Z" fill="white"/>
<path d="M6.63755 5.84387L1.29823 0.229908C0.987421 -0.0766439 0.511979 -0.0766439 0.219371 0.229908C-0.0731847 0.53646 -0.0731847 1.05377 0.219371 1.36038L5.02841 6.39949L0.219371 11.4386C-0.0731847 11.7643 -0.0731847 12.2625 0.219371 12.5691C0.511926 12.8756 0.987351 12.8756 1.29823 12.5691L6.63755 6.9743C6.93011 6.64863 6.93011 6.15044 6.63755 5.84383V5.84387Z" stroke="white"/>
</svg>
