<svg width="20" height="19" viewBox="0 0 20 19" fill="none" xmlns="http://www.w3.org/2000/svg">
<path fill-rule="evenodd" clip-rule="evenodd" d="M15.955 7.93708C15.955 3.76592 12.555 0.372192 8.37612 0.372192C4.19725 0.372192 0.797262 3.76592 0.797262 7.93708C0.797262 9.37095 1.19363 10.75 1.94698 11.9406L0.839304 14.7036C0.751856 14.9201 0.803129 15.1669 0.967485 15.3321C1.0794 15.4426 1.22866 15.502 1.38027 15.502C1.45263 15.502 1.52602 15.488 1.5972 15.4601L4.36407 14.3544C5.55803 15.1063 6.93961 15.502 8.37603 15.502C12.5549 15.502 15.9549 12.1083 15.9549 7.93713" fill="white"/>
<path fill-rule="evenodd" clip-rule="evenodd" d="M18.4047 15.6861C19.0916 14.591 19.4529 13.3272 19.4529 12.0108C19.4529 9.90417 18.5109 8.01751 17.029 6.7363C17.0838 7.12974 17.121 7.5289 17.121 7.9374C17.121 12.751 13.1986 16.6661 8.37614 16.6661C7.97274 16.6661 7.57285 16.6312 7.17761 16.5777C8.46122 18.0545 10.3502 18.9938 12.4572 18.9938C13.7759 18.9938 15.0422 18.6317 16.1407 17.9463L18.6545 18.9518C18.7232 18.9797 18.7979 18.9938 18.8702 18.9938C19.0218 18.9938 19.171 18.9344 19.283 18.8227C19.4486 18.6585 19.4975 18.4119 19.4113 18.1953L18.4047 15.6861Z" fill="white"/>
</svg>
