<svg width="34" height="14" viewBox="0 0 34 14" fill="none" xmlns="http://www.w3.org/2000/svg">
<path d="M19.9467 0.509766C30.9237 0.509766 33.668 2.99073 33.668 10.8247C33.6633 12.1898 32.9405 13.9986 31.7078 13.9986C29.9382 13.9986 26.2886 13.6253 25.0432 13.2052C23.7976 12.7851 23.8671 10.7198 23.8671 9.63478C23.8671 6.85776 24.6166 5.66751 19.1627 5.66751H15.2423C9.78813 5.66751 10.538 6.85776 10.538 9.63478C10.538 10.7201 10.6074 12.7852 9.36179 13.2052C8.11617 13.6253 4.46652 13.9986 2.69724 13.9986C1.4645 13.9986 0.741681 12.1898 0.737061 10.8247C0.737061 2.99073 3.48125 0.509766 14.4583 0.509766H19.9467Z" fill="white"/>
</svg>
