<svg width="17" height="14" viewBox="0 0 17 14" fill="none" xmlns="http://www.w3.org/2000/svg">
<path d="M7.12033 6.23556C7.51232 5.7135 8.06109 5.38047 8.67446 5.38047C9.2879 5.38047 9.83671 5.7135 10.2287 6.23556C10.6207 6.75764 10.8607 7.47378 10.8607 8.25891L7.12033 6.23556ZM7.12033 6.23556C6.72833 6.75764 6.48826 7.47378 6.48826 8.25891M7.12033 6.23556L6.48826 8.25891M6.48826 8.25891C6.48826 9.04404 6.72833 9.76018 7.12033 10.2823M6.48826 8.25891L7.12033 10.2823M7.12033 10.2823C7.51232 10.8043 8.06109 11.1374 8.67446 11.1374M7.12033 10.2823L8.67446 11.1374M8.67446 11.1374C9.28783 11.1374 9.8366 10.8043 10.2286 10.2823M8.67446 11.1374L10.2286 10.2823M10.2286 10.2823C10.6206 9.76018 10.8607 9.04404 10.8607 8.25892L10.2286 10.2823ZM8.67446 10.6539C8.20191 10.6539 7.76073 10.3984 7.43433 9.96706C7.108 9.53586 6.90106 8.93376 6.90106 8.25891C6.90106 7.58346 7.10299 6.98136 7.42654 6.55046C7.7499 6.1198 8.19086 5.86389 8.67446 5.86389C9.15806 5.86389 9.59901 6.1198 9.92237 6.55046C10.2459 6.98136 10.4479 7.58346 10.4479 8.25891C10.4479 8.93436 10.2459 9.53645 9.92237 9.96736C9.59901 10.398 9.15806 10.6539 8.67446 10.6539Z" fill="#B3B3B3" stroke="#B3B3B3" stroke-width="0.2"/>
<path d="M16.3746 8.0059C16.1448 7.64396 15.6722 6.95917 15.0155 6.23903L16.2845 4.57617L16.3305 4.51599L16.285 4.45546L16.1359 4.2569L16.0566 4.15124L15.9764 4.25629L14.7055 5.92241C14.0698 5.28045 13.2841 4.64318 12.3655 4.12765L13.0433 1.99416L13.0674 1.91832L12.9989 1.87781L12.8073 1.76449L12.7001 1.70107L12.6614 1.81945L11.9738 3.92008C11.0747 3.47468 10.0443 3.18395 8.91816 3.14268V1V0.9H8.81816H8.60522H8.50522V1V3.14262C7.38103 3.18249 6.36967 3.44727 5.47181 3.8661L4.80456 1.81956L4.76591 1.70099L4.65857 1.76449L4.46702 1.87781L4.398 1.91864L4.42286 1.99488L5.09936 4.0698C4.14061 4.58629 3.35178 5.22483 2.69758 5.86706L1.46802 4.25626L1.38788 4.15127L1.30857 4.2569L1.15948 4.45546L1.11401 4.51601L1.15997 4.57619L2.38589 6.18154C1.68851 6.92906 1.21445 7.61586 0.963796 8.00538L0.963651 8.00529L0.960768 8.0104C0.879729 8.15423 0.87977 8.33323 0.960733 8.47716L0.960447 8.47732L0.964976 8.48403C1.90416 9.87699 4.56967 13.1492 8.62577 13.1779H8.62647H8.64771C10.7846 13.1779 12.5355 12.2793 13.8402 11.246C15.1446 10.213 16.0083 9.0413 16.3738 8.4829L16.374 8.48302L16.3773 8.47722C16.4583 8.3334 16.4583 8.1544 16.3773 8.01047L16.3774 8.0104L16.3746 8.0059ZM8.62796 3.90659H8.62797C10.5248 3.87865 12.0996 4.65992 13.3093 5.61111C14.4839 6.53475 15.3093 7.61498 15.7431 8.25664C14.8582 9.50511 12.3699 12.4108 8.64778 12.4108C5.06432 12.4108 2.63745 9.68531 1.61609 8.25582C1.98208 7.70503 2.77495 6.65699 3.93382 5.72754C5.13366 4.76523 6.72002 3.93454 8.62796 3.90659Z" fill="#B3B3B3" stroke="#B3B3B3" stroke-width="0.2"/>
</svg>
