<svg width="42" height="41" viewBox="0 0 42 41" fill="none" xmlns="http://www.w3.org/2000/svg">
<rect width="42" height="40.9999" rx="5" fill="#89B77D"/>
<path fill-rule="evenodd" clip-rule="evenodd" d="M28.1161 18.2508C28.1161 13.1802 23.8899 9.05469 18.6957 9.05469C13.5014 9.05469 9.27532 13.1802 9.27532 18.2508C9.27532 19.1055 9.39379 19.9442 9.62497 20.7478C10.0776 22.3212 10.3341 24.0209 9.71312 25.5358L9.32758 26.4763C9.21888 26.7395 9.28262 27.0395 9.48691 27.2404C9.62601 27.3747 9.81154 27.4469 10 27.4469C10.0899 27.4469 10.1812 27.4298 10.2696 27.3959L11.3881 26.9588C12.8495 26.3876 14.4732 26.6194 15.979 27.0606C16.8503 27.3159 17.7637 27.4469 18.6956 27.4469C23.8898 27.4469 28.116 23.3214 28.116 18.2508" fill="white"/>
<path fill-rule="evenodd" clip-rule="evenodd" d="M32.1475 30.0774C31.5287 28.5689 31.7891 26.8755 32.1981 25.2972C32.3735 24.6202 32.4632 23.9179 32.4632 23.2028C32.4632 21.1619 31.7195 19.2908 30.4851 17.8268C30.1545 17.4347 29.5646 17.7382 29.5646 18.2511C29.5646 24.1026 24.6892 28.862 18.6949 28.862C18.1796 28.862 17.8858 29.46 18.2888 29.7813C19.7847 30.9736 21.691 31.6915 23.7676 31.6915C24.5569 31.6915 25.3311 31.5895 26.0741 31.3906C27.5834 30.9868 29.2004 30.7524 30.6555 31.3216L31.4708 31.6405C31.5562 31.6745 31.649 31.6915 31.7388 31.6915C31.9272 31.6915 32.1128 31.6193 32.2519 31.4836C32.4578 31.284 32.5186 30.9841 32.4114 30.7209L32.1475 30.0774Z" fill="white"/>
</svg>
