<svg width="42" height="42" viewBox="0 0 42 42" fill="none" xmlns="http://www.w3.org/2000/svg">
<rect width="41.9999" height="41.9997" rx="5" fill="#FF5250"/>
<path d="M29.624 12.376C29.1228 11.8747 28.3098 11.8747 27.8083 12.376L21 19.1843L14.1917 12.376C13.6904 11.8747 12.8775 11.8747 12.376 12.376C11.8747 12.8774 11.8747 13.6902 12.376 14.1917L19.1843 21L12.376 27.8083C11.8747 28.3095 11.8747 29.1225 12.376 29.624C12.8772 30.1252 13.6902 30.1252 14.1917 29.624L21 22.8157L27.8083 29.624C28.3096 30.1252 29.1225 30.1255 29.624 29.624C30.1253 29.1227 30.1253 28.3098 29.624 27.8083L22.8157 21L29.624 14.1917C30.1253 13.6904 30.1253 12.8774 29.624 12.376Z" fill="white"/>
</svg>
