<svg width="12" height="8" viewBox="0 0 12 8" fill="none" xmlns="http://www.w3.org/2000/svg">
<path d="M10.317 0.178671L4.36156 6.54615L1.40446 3.6511H1.40436C1.29352 3.5378 1.14471 3.47711 0.99151 3.48253C0.838224 3.48806 0.693484 3.55927 0.590011 3.68022C0.486527 3.80107 0.432846 3.96156 0.441295 4.12523C0.449745 4.28891 0.519529 4.44208 0.634843 4.55004L3.99378 7.8399C4.10203 7.94597 4.24439 8.00326 4.3912 7.99986C4.53802 7.99646 4.67801 7.93258 4.78189 7.82162L11.1236 1.0411V1.041C11.2677 0.886986 11.3239 0.662408 11.2712 0.451973C11.2185 0.241526 11.0648 0.0772211 10.8679 0.0207621C10.6711 -0.0355689 10.4611 0.0245882 10.317 0.178597L10.317 0.178671Z" fill="white"/>
</svg>
