<svg width="18" height="10" viewBox="0 0 18 10" fill="none" xmlns="http://www.w3.org/2000/svg">
<path d="M17.5569 0.421444C16.9662 -0.140481 16.0084 -0.140481 15.4177 0.421444L7.93038 7.54364C7.33965 8.10557 7.33965 9.01663 7.93038 9.57856C8.52112 10.1405 9.47889 10.1405 10.0696 9.57856L17.5569 2.45636C18.1477 1.89443 18.1477 0.98337 17.5569 0.421444Z" fill="white"/>
<path d="M10.0696 9.57856C10.6604 9.01663 10.6603 8.1056 10.0696 7.54367L2.58229 0.421476C1.99155 -0.14045 1.03378 -0.14045 0.44305 0.421475C-0.147682 0.983401 -0.147682 1.89446 0.44305 2.45639L7.93038 9.57856C8.52112 10.1405 9.47889 10.1405 10.0696 9.57856Z" fill="white"/>
</svg>
