<svg width="12" height="12" viewBox="0 0 12 12" fill="none" xmlns="http://www.w3.org/2000/svg">
<path d="M4.66946 6.00019L0.286927 1.65809C-0.0798054 1.29468 -0.0969839 0.687208 0.248726 0.301693C0.594692 -0.0836854 1.17204 -0.101642 1.53903 0.261534L6.00013 4.68142L10.4612 0.261191C10.8282 -0.102221 11.4056 -0.0841617 11.7515 0.30135C12.0972 0.687139 12.0801 1.2942 11.7133 1.65775L7.3308 5.99984L11.7133 10.3423C12.0801 10.706 12.0972 11.3132 11.7515 11.6987C11.5719 11.8991 11.3298 12 11.0871 12C10.8626 12 10.6374 11.9134 10.4611 11.7388L6 7.31861L1.53891 11.7385C1.36254 11.9132 1.13765 11.9997 0.912918 11.9997C0.670341 11.9997 0.428017 11.8985 0.248465 11.6983C-0.0972414 11.3126 -0.0800629 10.7055 0.286666 10.3419L4.66946 6.00019Z" fill="white"/>
</svg>
