<svg xmlns="http://www.w3.org/2000/svg" xmlns:xlink="http://www.w3.org/1999/xlink" width="500" zoomAndPan="magnify" viewBox="0 0 375 374.999991" height="500" preserveAspectRatio="xMidYMid meet" version="1.0"><defs><g/><clipPath id="43ab520160"><path d="M 11.96875 150.453125 L 91.46875 150.453125 L 91.46875 229.953125 L 11.96875 229.953125 Z M 11.96875 150.453125 " clip-rule="nonzero"/></clipPath></defs><g clip-path="url(#43ab520160)"><path fill="#011942" d="M 51.71875 150.453125 C 29.765625 150.453125 11.96875 168.246094 11.96875 190.203125 C 11.96875 212.15625 29.765625 229.953125 51.71875 229.953125 C 58.621094 229.953125 65.113281 228.1875 70.769531 225.089844 C 69.898438 224.449219 69.136719 223.675781 68.535156 222.773438 C 63.492188 225.390625 57.78125 226.894531 51.71875 226.894531 C 31.484375 226.894531 15.027344 210.433594 15.027344 190.203125 C 15.027344 169.96875 31.484375 153.507812 51.71875 153.507812 C 71.949219 153.507812 88.410156 169.96875 88.410156 190.203125 C 88.410156 197.816406 86.074219 204.894531 82.089844 210.765625 C 82.902344 211.453125 83.578125 212.265625 84.109375 213.191406 C 88.726562 206.699219 91.46875 198.777344 91.46875 190.203125 C 91.46875 168.246094 73.671875 150.453125 51.71875 150.453125 Z M 51.71875 150.453125 " fill-opacity="1" fill-rule="nonzero"/></g><path fill="#011942" d="M 27.257812 190.203125 C 27.257812 191.921875 27.441406 193.59375 27.777344 195.21875 C 28.625 194.558594 29.582031 194.054688 30.632812 193.726562 C 30.441406 192.574219 30.3125 191.40625 30.3125 190.203125 C 30.3125 178.402344 39.917969 168.796875 51.71875 168.796875 C 52.921875 168.796875 54.089844 168.921875 55.242188 169.113281 C 55.570312 168.0625 56.074219 167.105469 56.734375 166.257812 C 55.113281 165.921875 53.4375 165.738281 51.71875 165.738281 C 38.210938 165.738281 27.257812 176.691406 27.257812 190.203125 Z M 27.257812 190.203125 " fill-opacity="1" fill-rule="nonzero"/><path fill="#011942" d="M 76.179688 190.203125 C 76.179688 185.0625 74.589844 180.304688 71.886719 176.371094 C 71.34375 177.316406 70.65625 178.144531 69.824219 178.84375 C 71.902344 182.136719 73.121094 186.027344 73.121094 190.203125 C 73.121094 202 63.519531 211.605469 51.71875 211.605469 C 47.542969 211.605469 43.65625 210.386719 40.355469 208.308594 C 39.660156 209.132812 38.828125 209.828125 37.886719 210.371094 C 41.824219 213.074219 46.582031 214.664062 51.71875 214.664062 C 65.226562 214.664062 76.179688 203.710938 76.179688 190.203125 Z M 76.179688 190.203125 " fill-opacity="1" fill-rule="nonzero"/><path fill="#011942" d="M 57.832031 190.203125 C 57.832031 190.601562 57.792969 191 57.714844 191.394531 C 57.636719 191.789062 57.523438 192.171875 57.367188 192.542969 C 57.214844 192.914062 57.027344 193.265625 56.804688 193.597656 C 56.578125 193.933594 56.328125 194.242188 56.042969 194.527344 C 55.757812 194.808594 55.449219 195.0625 55.117188 195.285156 C 54.78125 195.507812 54.429688 195.699219 54.058594 195.851562 C 53.6875 196.003906 53.304688 196.121094 52.910156 196.199219 C 52.515625 196.277344 52.121094 196.316406 51.71875 196.316406 C 51.316406 196.316406 50.917969 196.277344 50.523438 196.199219 C 50.132812 196.121094 49.75 196.003906 49.378906 195.851562 C 49.007812 195.699219 48.65625 195.507812 48.320312 195.285156 C 47.988281 195.0625 47.679688 194.808594 47.394531 194.527344 C 47.109375 194.242188 46.855469 193.933594 46.632812 193.597656 C 46.410156 193.265625 46.222656 192.914062 46.066406 192.542969 C 45.914062 192.171875 45.796875 191.789062 45.71875 191.394531 C 45.640625 191 45.601562 190.601562 45.601562 190.203125 C 45.601562 189.800781 45.640625 189.402344 45.71875 189.007812 C 45.796875 188.613281 45.914062 188.230469 46.066406 187.859375 C 46.222656 187.488281 46.410156 187.136719 46.632812 186.804688 C 46.855469 186.46875 47.109375 186.160156 47.394531 185.878906 C 47.679688 185.59375 47.988281 185.339844 48.320312 185.117188 C 48.65625 184.894531 49.007812 184.707031 49.378906 184.550781 C 49.75 184.398438 50.132812 184.28125 50.523438 184.203125 C 50.917969 184.125 51.316406 184.085938 51.71875 184.085938 C 52.121094 184.085938 52.515625 184.125 52.910156 184.203125 C 53.304688 184.28125 53.6875 184.398438 54.058594 184.550781 C 54.429688 184.707031 54.78125 184.894531 55.117188 185.117188 C 55.449219 185.339844 55.757812 185.59375 56.042969 185.878906 C 56.328125 186.160156 56.578125 186.46875 56.804688 186.804688 C 57.027344 187.136719 57.214844 187.488281 57.367188 187.859375 C 57.523438 188.230469 57.636719 188.613281 57.714844 189.007812 C 57.792969 189.402344 57.832031 189.800781 57.832031 190.203125 Z M 57.832031 190.203125 " fill-opacity="1" fill-rule="nonzero"/><path fill="#011942" d="M 70.0625 171.855469 C 70.0625 172.257812 70.023438 172.65625 69.945312 173.046875 C 69.867188 173.441406 69.753906 173.824219 69.597656 174.195312 C 69.445312 174.566406 69.257812 174.917969 69.035156 175.253906 C 68.8125 175.585938 68.558594 175.894531 68.273438 176.179688 C 67.988281 176.464844 67.679688 176.71875 67.347656 176.941406 C 67.011719 177.164062 66.660156 177.351562 66.289062 177.503906 C 65.917969 177.660156 65.535156 177.773438 65.140625 177.851562 C 64.75 177.929688 64.351562 177.96875 63.949219 177.96875 C 63.546875 177.96875 63.148438 177.929688 62.757812 177.851562 C 62.363281 177.773438 61.980469 177.660156 61.609375 177.503906 C 61.238281 177.351562 60.886719 177.164062 60.550781 176.941406 C 60.21875 176.71875 59.910156 176.464844 59.625 176.179688 C 59.339844 175.894531 59.085938 175.585938 58.863281 175.253906 C 58.640625 174.917969 58.453125 174.566406 58.300781 174.195312 C 58.144531 173.824219 58.03125 173.441406 57.949219 173.046875 C 57.871094 172.65625 57.832031 172.257812 57.832031 171.855469 C 57.832031 171.453125 57.871094 171.054688 57.949219 170.660156 C 58.03125 170.269531 58.144531 169.886719 58.300781 169.515625 C 58.453125 169.144531 58.640625 168.792969 58.863281 168.457031 C 59.085938 168.125 59.339844 167.816406 59.625 167.53125 C 59.910156 167.246094 60.21875 166.992188 60.550781 166.769531 C 60.886719 166.546875 61.238281 166.359375 61.609375 166.207031 C 61.980469 166.050781 62.363281 165.9375 62.757812 165.855469 C 63.148438 165.777344 63.546875 165.738281 63.949219 165.738281 C 64.351562 165.738281 64.75 165.777344 65.140625 165.855469 C 65.535156 165.9375 65.917969 166.050781 66.289062 166.207031 C 66.660156 166.359375 67.011719 166.546875 67.347656 166.769531 C 67.679688 166.992188 67.988281 167.246094 68.273438 167.53125 C 68.558594 167.816406 68.8125 168.125 69.035156 168.457031 C 69.257812 168.792969 69.445312 169.144531 69.597656 169.515625 C 69.753906 169.886719 69.867188 170.269531 69.945312 170.660156 C 70.023438 171.054688 70.0625 171.453125 70.0625 171.855469 Z M 70.0625 171.855469 " fill-opacity="1" fill-rule="nonzero"/><path fill="#011942" d="M 39.488281 202.433594 C 39.488281 202.832031 39.449219 203.230469 39.371094 203.625 C 39.292969 204.019531 39.175781 204.402344 39.023438 204.773438 C 38.867188 205.144531 38.679688 205.496094 38.457031 205.828125 C 38.234375 206.164062 37.980469 206.472656 37.695312 206.757812 C 37.414062 207.039062 37.101562 207.292969 36.769531 207.515625 C 36.4375 207.738281 36.082031 207.929688 35.710938 208.082031 C 35.339844 208.234375 34.957031 208.351562 34.566406 208.429688 C 34.171875 208.507812 33.773438 208.546875 33.371094 208.546875 C 32.96875 208.546875 32.574219 208.507812 32.179688 208.429688 C 31.785156 208.351562 31.402344 208.234375 31.03125 208.082031 C 30.660156 207.929688 30.308594 207.738281 29.972656 207.515625 C 29.640625 207.292969 29.332031 207.039062 29.046875 206.757812 C 28.765625 206.472656 28.511719 206.164062 28.289062 205.828125 C 28.0625 205.496094 27.875 205.144531 27.722656 204.773438 C 27.570312 204.402344 27.453125 204.019531 27.375 203.625 C 27.296875 203.230469 27.257812 202.832031 27.257812 202.433594 C 27.257812 202.03125 27.296875 201.632812 27.375 201.238281 C 27.453125 200.84375 27.570312 200.460938 27.722656 200.09375 C 27.875 199.722656 28.0625 199.367188 28.289062 199.035156 C 28.511719 198.699219 28.765625 198.390625 29.046875 198.109375 C 29.332031 197.824219 29.640625 197.570312 29.972656 197.347656 C 30.308594 197.125 30.660156 196.9375 31.03125 196.78125 C 31.402344 196.628906 31.785156 196.511719 32.179688 196.433594 C 32.574219 196.355469 32.96875 196.316406 33.371094 196.316406 C 33.773438 196.316406 34.171875 196.355469 34.566406 196.433594 C 34.957031 196.511719 35.339844 196.628906 35.710938 196.78125 C 36.082031 196.9375 36.4375 197.125 36.769531 197.347656 C 37.101562 197.570312 37.414062 197.824219 37.695312 198.109375 C 37.980469 198.390625 38.234375 198.699219 38.457031 199.035156 C 38.679688 199.367188 38.867188 199.722656 39.023438 200.09375 C 39.175781 200.460938 39.292969 200.84375 39.371094 201.238281 C 39.449219 201.632812 39.488281 202.03125 39.488281 202.433594 Z M 39.488281 202.433594 " fill-opacity="1" fill-rule="nonzero"/><path fill="#011942" d="M 82.296875 217.71875 C 82.296875 218.121094 82.257812 218.519531 82.175781 218.914062 C 82.097656 219.308594 81.984375 219.691406 81.828125 220.0625 C 81.675781 220.433594 81.488281 220.785156 81.265625 221.117188 C 81.042969 221.453125 80.789062 221.761719 80.503906 222.042969 C 80.21875 222.328125 79.910156 222.582031 79.578125 222.804688 C 79.242188 223.027344 78.890625 223.214844 78.519531 223.371094 C 78.148438 223.523438 77.765625 223.640625 77.371094 223.71875 C 76.980469 223.796875 76.582031 223.835938 76.179688 223.835938 C 75.777344 223.835938 75.378906 223.796875 74.988281 223.71875 C 74.59375 223.640625 74.210938 223.523438 73.839844 223.371094 C 73.46875 223.214844 73.117188 223.027344 72.78125 222.804688 C 72.449219 222.582031 72.140625 222.328125 71.855469 222.042969 C 71.570312 221.761719 71.316406 221.453125 71.09375 221.117188 C 70.871094 220.785156 70.683594 220.433594 70.53125 220.0625 C 70.375 219.691406 70.261719 219.308594 70.183594 218.914062 C 70.101562 218.519531 70.0625 218.121094 70.0625 217.71875 C 70.0625 217.320312 70.101562 216.921875 70.183594 216.527344 C 70.261719 216.132812 70.375 215.75 70.53125 215.378906 C 70.683594 215.007812 70.871094 214.65625 71.09375 214.324219 C 71.316406 213.988281 71.570312 213.679688 71.855469 213.394531 C 72.140625 213.113281 72.449219 212.859375 72.78125 212.636719 C 73.117188 212.414062 73.46875 212.222656 73.839844 212.070312 C 74.210938 211.917969 74.59375 211.800781 74.988281 211.722656 C 75.378906 211.644531 75.777344 211.605469 76.179688 211.605469 C 76.582031 211.605469 76.980469 211.644531 77.371094 211.722656 C 77.765625 211.800781 78.148438 211.917969 78.519531 212.070312 C 78.890625 212.222656 79.242188 212.414062 79.578125 212.636719 C 79.910156 212.859375 80.21875 213.113281 80.503906 213.394531 C 80.789062 213.679688 81.042969 213.988281 81.265625 214.324219 C 81.488281 214.65625 81.675781 215.007812 81.828125 215.378906 C 81.984375 215.75 82.097656 216.132812 82.175781 216.527344 C 82.257812 216.921875 82.296875 217.320312 82.296875 217.71875 Z M 82.296875 217.71875 " fill-opacity="1" fill-rule="nonzero"/><g fill="#011942" fill-opacity="1"><g transform="translate(105.880282, 206.780598)"><g><path d="M 28.511719 -37.332031 C 22.300781 -37.332031 17.195312 -34.636719 14.050781 -30.101562 C 12.050781 -33.574219 8.617188 -35.863281 3.921875 -36.84375 L 3.921875 3.269531 C 3.921875 13.886719 8.25 19.605469 16.175781 20.421875 L 16.175781 -3.429688 C 19.277344 -0.410156 23.527344 1.308594 28.511719 1.308594 C 39.128906 1.308594 46.480469 -6.617188 46.480469 -18.054688 C 46.480469 -29.410156 39.128906 -37.332031 28.511719 -37.332031 Z M 24.753906 -8.496094 C 19.769531 -8.496094 16.175781 -12.417969 16.175781 -17.972656 C 16.175781 -23.527344 19.769531 -27.449219 24.753906 -27.449219 C 29.734375 -27.449219 33.328125 -23.527344 33.328125 -17.972656 C 33.328125 -12.417969 29.734375 -8.496094 24.753906 -8.496094 Z M 24.753906 -8.496094 "/></g></g></g><g fill="#011942" fill-opacity="1"><g transform="translate(154.724738, 206.780598)"><g><path d="M 27.203125 -36.84375 C 22.464844 -36.84375 18.625 -34.71875 16.175781 -31.65625 L 16.175781 -45.746094 C 16.175781 -54.160156 11.84375 -59.632812 3.921875 -61.265625 L 3.921875 -1.632812 C 3.921875 -0.570312 4.492188 0 5.554688 0 L 14.539062 0 C 15.601562 0 16.175781 -0.570312 16.175781 -1.632812 L 16.175781 -17.972656 C 16.175781 -22.875 19.195312 -26.957031 23.035156 -26.957031 C 26.875 -26.957031 28.511719 -24.671875 28.511719 -20.421875 L 28.511719 -1.632812 C 28.511719 -0.570312 29.082031 0 30.144531 0 L 39.128906 0 C 40.191406 0 40.761719 -0.570312 40.761719 -1.632812 L 40.761719 -20.421875 C 40.761719 -30.226562 36.84375 -36.84375 27.203125 -36.84375 Z M 27.203125 -36.84375 "/></g></g></g><g fill="#011942" fill-opacity="1"><g transform="translate(198.831775, 206.780598)"><g><path d="M 22.875 1.308594 C 35.699219 1.308594 43.378906 -6.617188 43.378906 -17.972656 C 43.378906 -29.246094 35.617188 -37.332031 22.875 -37.332031 C 10.046875 -37.332031 2.289062 -29.246094 2.289062 -17.972656 C 2.289062 -6.699219 9.964844 1.308594 22.875 1.308594 Z M 22.875 -8.25 C 17.398438 -8.25 14.460938 -12.5 14.460938 -17.890625 C 14.460938 -23.363281 17.480469 -27.773438 22.875 -27.773438 C 28.265625 -27.773438 31.207031 -23.445312 31.207031 -17.890625 C 31.207031 -12.417969 28.265625 -8.25 22.875 -8.25 Z M 22.875 -8.25 "/></g></g></g><g fill="#011942" fill-opacity="1"><g transform="translate(244.572411, 206.780598)"><g><path d="M 20.097656 -36.023438 L 20.097656 -51.546875 C 12.171875 -49.914062 7.84375 -44.4375 7.84375 -36.023438 L 2.613281 -36.023438 C 1.550781 -36.023438 0.980469 -35.453125 0.980469 -34.390625 L 0.980469 -28.183594 C 0.980469 -27.121094 1.550781 -26.550781 2.613281 -26.550781 L 7.84375 -26.550781 L 7.84375 -1.632812 C 7.84375 -0.570312 8.414062 0 9.476562 0 L 18.460938 0 C 19.523438 0 20.097656 -0.570312 20.097656 -1.632812 L 20.097656 -26.550781 L 25.40625 -26.550781 C 26.46875 -26.550781 27.039062 -27.121094 27.039062 -28.183594 L 27.039062 -34.390625 C 27.039062 -35.453125 26.46875 -36.023438 25.40625 -36.023438 Z M 20.097656 -36.023438 "/></g></g></g><g fill="#011942" fill-opacity="1"><g transform="translate(272.588541, 206.780598)"><g><path d="M 22.875 1.308594 C 35.699219 1.308594 43.378906 -6.617188 43.378906 -17.972656 C 43.378906 -29.246094 35.617188 -37.332031 22.875 -37.332031 C 10.046875 -37.332031 2.289062 -29.246094 2.289062 -17.972656 C 2.289062 -6.699219 9.964844 1.308594 22.875 1.308594 Z M 22.875 -8.25 C 17.398438 -8.25 14.460938 -12.5 14.460938 -17.890625 C 14.460938 -23.363281 17.480469 -27.773438 22.875 -27.773438 C 28.265625 -27.773438 31.207031 -23.445312 31.207031 -17.890625 C 31.207031 -12.417969 28.265625 -8.25 22.875 -8.25 Z M 22.875 -8.25 "/></g></g></g><g fill="#011942" fill-opacity="1"><g transform="translate(318.329166, 206.780598)"><g><path d="M 27.121094 -37.332031 C 22.382812 -37.332031 17.972656 -35.25 14.253906 -29.777344 C 12.253906 -33.410156 8.742188 -35.863281 3.921875 -36.84375 L 3.921875 -1.632812 C 3.921875 -0.570312 4.492188 0 5.554688 0 L 14.539062 0 C 15.601562 0 16.175781 -0.570312 16.175781 -1.632812 L 16.175781 -20.300781 C 16.664062 -24.792969 19.484375 -27.53125 22.953125 -27.53125 C 26.792969 -27.53125 28.429688 -25.160156 28.429688 -20.914062 L 28.429688 -1.632812 C 28.429688 -0.570312 29 0 30.0625 0 L 39.046875 0 C 40.109375 0 40.679688 -0.570312 40.679688 -1.632812 L 40.679688 -20.914062 C 40.679688 -30.714844 36.761719 -37.332031 27.121094 -37.332031 Z M 27.121094 -37.332031 "/></g></g></g></svg>