<svg width="366" height="91" xmlns="http://www.w3.org/2000/svg" version="1.0" preserveAspectRatio="xMidYMid meet" zoomAndPan="magnify">
 <defs>
  <g id="svg_1"/>
  <clipPath id="43ab520160">
   <path id="svg_2" clip-rule="nonzero" d="m11.96875,150.45313l79.5,0l0,79.5l-79.5,0l0,-79.5zm0,0"/>
  </clipPath>
 </defs>
 <g>
  <title>Layer 1</title>
  <g id="svg_3" clip-path="url(#43ab520160)">
   <path id="svg_4" fill-rule="nonzero" d="m42.71875,7.45313c-21.95312,0 -39.75,17.79296 -39.75,39.75c0,21.95312 17.79688,39.75 39.75,39.75c6.90234,0 13.39453,-1.76563 19.05078,-4.86329c-0.87109,-0.64062 -1.63281,-1.41406 -2.23437,-2.3164c-5.04297,2.61719 -10.75391,4.12109 -16.81641,4.12109c-20.23437,0 -36.69141,-16.46094 -36.69141,-36.6914c0,-20.23438 16.45704,-36.69532 36.69141,-36.69532c20.23047,0 36.69141,16.46094 36.69141,36.69532c0,7.61328 -2.33594,14.6914 -6.32032,20.5625c0.8125,0.6875 1.48829,1.5 2.01954,2.42578c4.61718,-6.49219 7.35937,-14.41407 7.35937,-22.98828c0,-21.95704 -17.79687,-39.75 -39.75,-39.75zm0,0" fill="#011942"/>
  </g>
  <path id="svg_5" fill-rule="nonzero" d="m18.25781,47.20313c0,1.71875 0.1836,3.39062 0.51953,5.01562c0.84766,-0.66016 1.80469,-1.16406 2.85547,-1.49219c-0.1914,-1.15234 -0.32031,-2.32031 -0.32031,-3.52343c0,-11.80079 9.60547,-21.40625 21.40625,-21.40625c1.20313,0 2.37109,0.125 3.52344,0.3164c0.32812,-1.05078 0.83203,-2.00781 1.49219,-2.85547c-1.6211,-0.33593 -3.29688,-0.51953 -5.01563,-0.51953c-13.50781,0 -24.46094,10.95313 -24.46094,24.46485zm0,0" fill="#011942"/>
  <path id="svg_6" fill-rule="nonzero" d="m67.17969,47.20313c0,-5.14063 -1.58985,-9.89844 -4.29297,-13.83204c-0.54297,0.94532 -1.23047,1.77344 -2.0625,2.47266c2.07812,3.29297 3.29687,7.18359 3.29687,11.35938c0,11.79687 -9.60156,21.40234 -21.40234,21.40234c-4.17578,0 -8.0625,-1.21875 -11.36328,-3.29688c-0.69531,0.82422 -1.52734,1.51954 -2.46875,2.0625c3.9375,2.70313 8.69531,4.29297 13.83203,4.29297c13.50781,0 24.46094,-10.95312 24.46094,-24.46093zm0,0" fill="#011942"/>
  <path id="svg_7" fill-rule="nonzero" d="m48.83203,47.20313c0,0.39843 -0.03906,0.79687 -0.11719,1.1914c-0.07812,0.39453 -0.1914,0.77735 -0.34765,1.14844c-0.15235,0.37109 -0.33985,0.72266 -0.5625,1.05469c-0.22656,0.33593 -0.47656,0.64453 -0.76172,0.92968c-0.28516,0.28125 -0.59375,0.53516 -0.92578,0.75782c-0.33594,0.22265 -0.6875,0.41406 -1.0586,0.5664c-0.37109,0.15235 -0.7539,0.26953 -1.14843,0.34766c-0.39453,0.07812 -0.78907,0.11719 -1.19141,0.11719c-0.40234,0 -0.80078,-0.03907 -1.19531,-0.11719c-0.39063,-0.07813 -0.77344,-0.19531 -1.14453,-0.34766c-0.3711,-0.15234 -0.72266,-0.34375 -1.0586,-0.5664c-0.33203,-0.22266 -0.64062,-0.47657 -0.92578,-0.75782c-0.28515,-0.28515 -0.53906,-0.59375 -0.76172,-0.92968c-0.22265,-0.33203 -0.41015,-0.6836 -0.5664,-1.05469c-0.15235,-0.37109 -0.26953,-0.75391 -0.34766,-1.14844c-0.07812,-0.39453 -0.11719,-0.79297 -0.11719,-1.1914c0,-0.40235 0.03907,-0.80079 0.11719,-1.19532c0.07813,-0.39453 0.19531,-0.77734 0.34766,-1.14843c0.15625,-0.3711 0.34375,-0.72266 0.5664,-1.05469c0.22266,-0.33594 0.47657,-0.64453 0.76172,-0.92578c0.28516,-0.28516 0.59375,-0.53907 0.92578,-0.76172c0.33594,-0.22266 0.6875,-0.41016 1.0586,-0.56641c0.37109,-0.15234 0.7539,-0.26953 1.14453,-0.34765c0.39453,-0.07813 0.79297,-0.11719 1.19531,-0.11719c0.40234,0 0.79688,0.03906 1.19141,0.11719c0.39453,0.07812 0.77734,0.19531 1.14843,0.34765c0.3711,0.15625 0.72266,0.34375 1.0586,0.56641c0.33203,0.22265 0.64062,0.47656 0.92578,0.76172c0.28516,0.28125 0.53516,0.58984 0.76172,0.92578c0.22265,0.33203 0.41015,0.68359 0.5625,1.05469c0.15625,0.37109 0.26953,0.7539 0.34765,1.14843c0.07813,0.39453 0.11719,0.79297 0.11719,1.19532zm0,0" fill="#011942"/>
  <path id="svg_8" fill-rule="nonzero" d="m61.0625,28.85547c0,0.40234 -0.03906,0.80078 -0.11719,1.19141c-0.07812,0.39453 -0.1914,0.77734 -0.34765,1.14843c-0.15235,0.3711 -0.33985,0.72266 -0.5625,1.0586c-0.22266,0.33203 -0.47657,0.64062 -0.76172,0.92578c-0.28516,0.28515 -0.59375,0.53906 -0.92578,0.76172c-0.33594,0.22265 -0.6875,0.41015 -1.0586,0.5625c-0.37109,0.15625 -0.7539,0.26953 -1.14843,0.34765c-0.39063,0.07813 -0.78907,0.11719 -1.19141,0.11719c-0.40234,0 -0.80078,-0.03906 -1.19141,-0.11719c-0.39453,-0.07812 -0.77734,-0.1914 -1.14843,-0.34765c-0.3711,-0.15235 -0.72266,-0.33985 -1.0586,-0.5625c-0.33203,-0.22266 -0.64062,-0.47657 -0.92578,-0.76172c-0.28516,-0.28516 -0.53906,-0.59375 -0.76172,-0.92578c-0.22265,-0.33594 -0.41015,-0.6875 -0.5625,-1.0586c-0.15625,-0.37109 -0.26953,-0.7539 -0.35156,-1.14843c-0.07813,-0.39063 -0.11719,-0.78907 -0.11719,-1.19141c0,-0.40234 0.03906,-0.80078 0.11719,-1.19531c0.08203,-0.39063 0.19531,-0.77344 0.35156,-1.14453c0.15235,-0.3711 0.33985,-0.72266 0.5625,-1.0586c0.22266,-0.33203 0.47656,-0.64062 0.76172,-0.92578c0.28516,-0.28516 0.59375,-0.53906 0.92578,-0.76172c0.33594,-0.22265 0.6875,-0.41015 1.0586,-0.5625c0.37109,-0.15625 0.7539,-0.26953 1.14843,-0.35156c0.39063,-0.07813 0.78907,-0.11719 1.19141,-0.11719c0.40234,0 0.80078,0.03906 1.19141,0.11719c0.39453,0.08203 0.77734,0.19531 1.14843,0.35156c0.3711,0.15235 0.72266,0.33985 1.0586,0.5625c0.33203,0.22266 0.64062,0.47656 0.92578,0.76172c0.28515,0.28516 0.53906,0.59375 0.76172,0.92578c0.22265,0.33594 0.41015,0.6875 0.5625,1.0586c0.15625,0.37109 0.26953,0.7539 0.34765,1.14453c0.07813,0.39453 0.11719,0.79297 0.11719,1.19531zm0,0" fill="#011942"/>
  <path id="svg_9" fill-rule="nonzero" d="m30.48828,59.43359c0,0.39844 -0.03906,0.79688 -0.11719,1.19141c-0.07812,0.39453 -0.19531,0.77734 -0.34765,1.14844c-0.15625,0.37109 -0.34375,0.72265 -0.56641,1.05469c-0.22265,0.33593 -0.47656,0.64453 -0.76172,0.92968c-0.28125,0.28125 -0.59375,0.53516 -0.92578,0.75782c-0.33203,0.22265 -0.6875,0.41406 -1.05859,0.5664c-0.3711,0.15235 -0.75391,0.26953 -1.14453,0.34766c-0.39453,0.07812 -0.79297,0.11719 -1.19532,0.11719c-0.40234,0 -0.79687,-0.03907 -1.1914,-0.11719c-0.39453,-0.07813 -0.77735,-0.19531 -1.14844,-0.34766c-0.37109,-0.15234 -0.72266,-0.34375 -1.05859,-0.5664c-0.33203,-0.22266 -0.64063,-0.47657 -0.92578,-0.75782c-0.28125,-0.28515 -0.53516,-0.59375 -0.75782,-0.92968c-0.22656,-0.33204 -0.41406,-0.6836 -0.5664,-1.05469c-0.15235,-0.3711 -0.26953,-0.75391 -0.34766,-1.14844c-0.07812,-0.39453 -0.11719,-0.79297 -0.11719,-1.19141c0,-0.40234 0.03907,-0.80078 0.11719,-1.19531c0.07813,-0.39453 0.19531,-0.77734 0.34766,-1.14453c0.15234,-0.37109 0.33984,-0.72656 0.5664,-1.05859c0.22266,-0.33594 0.47657,-0.64453 0.75782,-0.92578c0.28515,-0.28516 0.59375,-0.53907 0.92578,-0.76172c0.33593,-0.22266 0.6875,-0.41016 1.05859,-0.56641c0.37109,-0.15234 0.75391,-0.26953 1.14844,-0.34766c0.39453,-0.07812 0.78906,-0.11718 1.1914,-0.11718c0.40235,0 0.80079,0.03906 1.19532,0.11718c0.39062,0.07813 0.77343,0.19532 1.14453,0.34766c0.37109,0.15625 0.72656,0.34375 1.05859,0.56641c0.33203,0.22265 0.64453,0.47656 0.92578,0.76172c0.28516,0.28125 0.53907,0.58984 0.76172,0.92578c0.22266,0.33203 0.41016,0.6875 0.56641,1.05859c0.15234,0.36719 0.26953,0.75 0.34765,1.14453c0.07813,0.39453 0.11719,0.79297 0.11719,1.19531zm0,0" fill="#011942"/>
  <path id="svg_10" fill-rule="nonzero" d="m73.29688,74.71875c0,0.40234 -0.03907,0.80078 -0.1211,1.19531c-0.07812,0.39453 -0.1914,0.77735 -0.34765,1.14844c-0.15235,0.37109 -0.33985,0.72266 -0.5625,1.05469c-0.22266,0.33594 -0.47657,0.64453 -0.76172,0.92578c-0.28516,0.28516 -0.59375,0.53906 -0.92578,0.76172c-0.33594,0.22265 -0.6875,0.41015 -1.0586,0.5664c-0.37109,0.15235 -0.7539,0.26954 -1.14844,0.34766c-0.39062,0.07813 -0.78906,0.11719 -1.1914,0.11719c-0.40235,0 -0.80078,-0.03906 -1.19141,-0.11719c-0.39453,-0.07812 -0.77734,-0.19531 -1.14844,-0.34766c-0.37109,-0.15625 -0.72265,-0.34375 -1.05859,-0.5664c-0.33203,-0.22266 -0.64062,-0.47656 -0.92578,-0.76172c-0.28516,-0.28125 -0.53906,-0.58984 -0.76172,-0.92578c-0.22266,-0.33203 -0.41016,-0.6836 -0.5625,-1.05469c-0.15625,-0.37109 -0.26953,-0.75391 -0.34766,-1.14844c-0.08203,-0.39453 -0.12109,-0.79297 -0.12109,-1.19531c0,-0.39844 0.03906,-0.79687 0.12109,-1.19141c0.07813,-0.39453 0.19141,-0.77734 0.34766,-1.14843c0.15234,-0.3711 0.33984,-0.72266 0.5625,-1.05469c0.22266,-0.33594 0.47656,-0.64453 0.76172,-0.92969c0.28516,-0.28125 0.59375,-0.53515 0.92578,-0.75781c0.33594,-0.22266 0.6875,-0.41406 1.05859,-0.56641c0.3711,-0.15234 0.75391,-0.26953 1.14844,-0.34765c0.39063,-0.07813 0.78906,-0.11719 1.19141,-0.11719c0.40234,0 0.80078,0.03906 1.1914,0.11719c0.39454,0.07812 0.77735,0.19531 1.14844,0.34765c0.3711,0.15235 0.72266,0.34375 1.0586,0.56641c0.33203,0.22266 0.64062,0.47656 0.92578,0.75781c0.28515,0.28516 0.53906,0.59375 0.76172,0.92969c0.22265,0.33203 0.41015,0.68359 0.5625,1.05469c0.15625,0.37109 0.26953,0.7539 0.34765,1.14843c0.08203,0.39454 0.1211,0.79297 0.1211,1.19141zm0,0" fill="#011942"/>
  <g id="svg_11" fill="#011942">
   <g id="svg_12">
    <g id="svg_13">
     <path id="svg_14" d="m125.392,26.44856c-6.21094,0 -11.31641,2.69531 -14.46094,7.23047c-2,-3.47266 -5.43359,-5.76172 -10.1289,-6.74219l0,40.11328c0,10.61719 4.32812,16.33594 12.2539,17.15235l0,-23.85157c3.10156,3.01953 7.35156,4.73828 12.33594,4.73828c10.61719,0 17.96875,-7.92578 17.96875,-19.36328c0,-11.35547 -7.35156,-19.27734 -17.96875,-19.27734zm-3.75781,28.83594c-4.98438,0 -8.57813,-3.92188 -8.57813,-9.47657c0,-5.55468 3.59375,-9.47656 8.57813,-9.47656c4.98047,0 8.57422,3.92188 8.57422,9.47656c0,5.55469 -3.59375,9.47657 -8.57422,9.47657zm0,0"/>
    </g>
   </g>
  </g>
  <g id="svg_15" fill="#011942">
   <g id="svg_16">
    <g id="svg_17">
     <path id="svg_18" d="m172.92786,26.93684c-4.73829,0 -8.57813,2.125 -11.02735,5.1875l0,-14.08984c0,-8.41407 -4.33203,-13.88672 -12.2539,-15.51954l0,59.63282c0,1.0625 0.57031,1.63281 1.63281,1.63281l8.98437,0c1.0625,0 1.63672,-0.57031 1.63672,-1.63281l0,-16.33985c0,-4.90234 3.01953,-8.98437 6.85938,-8.98437c3.83984,0 5.47656,2.28515 5.47656,6.53515l0,18.78907c0,1.0625 0.57031,1.63281 1.63281,1.63281l8.98438,0c1.0625,0 1.63281,-0.57031 1.63281,-1.63281l0,-18.78907c0,-9.80468 -3.91797,-16.42187 -13.55859,-16.42187zm0,0"/>
    </g>
   </g>
  </g>
  <g id="svg_19" fill="#011942">
   <g id="svg_20">
    <g id="svg_21">
     <path id="svg_22" d="m212.70677,65.08918c12.82422,0 20.50391,-7.92578 20.50391,-19.28125c0,-11.27343 -7.76172,-19.35937 -20.50391,-19.35937c-12.82812,0 -20.58594,8.08594 -20.58594,19.35937c0,11.27344 7.67578,19.28125 20.58594,19.28125zm0,-9.55859c-5.47656,0 -8.41406,-4.25 -8.41406,-9.64063c0,-5.47265 3.01953,-9.88281 8.41406,-9.88281c5.39063,0 8.33203,4.32813 8.33203,9.88281c0,5.47266 -2.9414,9.64063 -8.33203,9.64063zm0,0"/>
    </g>
   </g>
  </g>
  <g id="svg_23" fill="#011942">
   <g id="svg_24">
    <g id="svg_25">
     <path id="svg_26" d="m255.67008,27.75715l0,-15.52344c-7.92578,1.63282 -12.25391,7.10938 -12.25391,15.52344l-5.23047,0c-1.0625,0 -1.63281,0.57031 -1.63281,1.63281l0,6.20704c0,1.0625 0.57031,1.63281 1.63281,1.63281l5.23047,0l0,24.91797c0,1.0625 0.57031,1.63281 1.63281,1.63281l8.98438,0c1.0625,0 1.63672,-0.57031 1.63672,-1.63281l0,-24.91797l5.30859,0c1.0625,0 1.63281,-0.57031 1.63281,-1.63281l0,-6.20704c0,-1.0625 -0.57031,-1.63281 -1.63281,-1.63281l-5.30859,0zm0,0"/>
    </g>
   </g>
  </g>
  <g id="svg_27" fill="#011942">
   <g id="svg_28">
    <g id="svg_29">
     <path id="svg_30" d="m286.46353,65.08918c12.82422,0 20.50391,-7.92578 20.50391,-19.28125c0,-11.27343 -7.76172,-19.35937 -20.50391,-19.35937c-12.82812,0 -20.58594,8.08594 -20.58594,19.35937c0,11.27344 7.67578,19.28125 20.58594,19.28125zm0,-9.55859c-5.47656,0 -8.41406,-4.25 -8.41406,-9.64063c0,-5.47265 3.01953,-9.88281 8.41406,-9.88281c5.39063,0 8.33203,4.32813 8.33203,9.88281c0,5.47266 -2.9414,9.64063 -8.33203,9.64063zm0,0"/>
    </g>
   </g>
  </g>
  <g id="svg_31" fill="#011942">
   <g id="svg_32">
    <g id="svg_33">
     <path id="svg_34" d="m336.45025,26.44856c-4.73828,0 -9.14843,2.08203 -12.86718,7.55469c-2,-3.63282 -5.51172,-6.08594 -10.33203,-7.06641l0,35.21094c0,1.0625 0.57031,1.63281 1.63281,1.63281l8.98437,0c1.0625,0 1.63672,-0.57031 1.63672,-1.63281l0,-18.66797c0.48828,-4.49219 3.3086,-7.23047 6.77735,-7.23047c3.83984,0 5.47656,2.37109 5.47656,6.61719l0,19.28125c0,1.0625 0.57031,1.63281 1.63281,1.63281l8.98438,0c1.0625,0 1.63281,-0.57031 1.63281,-1.63281l0,-19.28125c0,-9.80078 -3.91797,-16.41797 -13.5586,-16.41797zm0,0"/>
    </g>
   </g>
  </g>
 </g>
</svg>