<svg width="16" height="16" viewBox="0 0 16 16" fill="none" xmlns="http://www.w3.org/2000/svg">
<path d="M14.374 15.0067C14.3733 15.0234 14.3807 15.0406 14.3974 15.051C14.3798 15.0401 14.3727 15.0231 14.3737 15.0067C14.3738 15.0067 14.3739 15.0067 14.374 15.0067ZM14.4325 15.0579C14.4522 15.0546 14.4663 15.0402 14.4717 15.0231C14.4668 15.0402 14.4531 15.0547 14.4325 15.0579ZM14.4239 15.0586C14.4248 15.0586 14.4257 15.0586 14.4266 15.0586C14.6008 15.0579 14.7926 14.9948 14.9229 14.8652C15.2131 14.591 15.2115 14.141 14.9393 13.8533L14.9393 13.8533L14.9388 13.8528L11.3758 10.1917C11.3757 10.1916 11.3756 10.1915 11.3755 10.1915C11.1009 9.90153 10.6501 9.90306 10.3618 10.1748C10.0711 10.4489 10.0725 10.8993 10.3449 11.1871L10.3449 11.1871L10.3454 11.1877L13.909 14.8343L13.909 14.8344L13.9094 14.8348C14.0524 14.9774 14.2294 15.0586 14.4239 15.0586Z" fill="#C2C2C2" stroke="#C2C2C2" stroke-width="0.1"/>
<path d="M1.0482 6.38512C1.04827 9.73103 3.79618 12.458 7.19217 12.458C10.5731 12.458 13.3361 9.73104 13.3361 6.38501C13.3361 3.03906 10.5882 0.312061 7.19217 0.312061C3.79639 0.312061 1.03331 3.03884 1.0482 6.38512ZM2.46582 6.38501C2.46582 3.82781 4.58377 1.74219 7.19217 1.74219C9.78557 1.74219 11.9036 3.82771 11.9035 6.38501C11.9035 8.9422 9.78552 11.0278 7.19217 11.0278C4.58369 11.0278 2.46582 8.9421 2.46582 6.38501Z" fill="#C2C2C2" stroke="#C2C2C2" stroke-width="0.1"/>
</svg>
