<svg width="13" height="7" viewBox="0 0 13 7" fill="none" xmlns="http://www.w3.org/2000/svg">
<path d="M11.8473 0.750166C11.4677 0.401312 10.8524 0.401312 10.4728 0.750166L5.66214 5.17176C5.28258 5.52061 5.28258 6.08622 5.66214 6.43507C6.04169 6.78393 6.65706 6.78393 7.03662 6.43507L11.8473 2.01348C12.2268 1.66462 12.2268 1.09902 11.8473 0.750166Z" fill="#363438"/>
<path d="M7.03662 6.43507C7.41617 6.08622 7.41616 5.52063 7.03661 5.17178L2.22593 0.750185C1.84638 0.401331 1.23101 0.401331 0.851455 0.750185C0.471903 1.09904 0.471903 1.66464 0.851455 2.0135L5.66214 6.43507C6.04169 6.78393 6.65706 6.78393 7.03662 6.43507Z" fill="#363438"/>
</svg>
