<svg width="20" height="19" viewBox="0 0 20 19" fill="none" xmlns="http://www.w3.org/2000/svg">
<path fill-rule="evenodd" clip-rule="evenodd" d="M15.7724 7.77326C15.7724 3.6021 12.3724 0.208374 8.1935 0.208374C4.01464 0.208374 0.614645 3.6021 0.614645 7.77326C0.614645 9.20713 1.01101 10.5862 1.76437 11.7768L0.656687 14.5398C0.569238 14.7563 0.620512 15.0031 0.784868 15.1683C0.896782 15.2788 1.04604 15.3382 1.19766 15.3382C1.27001 15.3382 1.3434 15.3242 1.41459 15.2962L4.18145 14.1906C5.37541 14.9425 6.757 15.3382 8.19342 15.3382C12.3723 15.3382 15.7723 11.9445 15.7723 7.77331" fill="#AFAFAF"/>
<path fill-rule="evenodd" clip-rule="evenodd" d="M18.2221 15.5223C18.9089 14.4272 19.2703 13.1634 19.2703 11.8469C19.2703 9.74035 18.3283 7.85369 16.8464 6.57248C16.9011 6.96592 16.9384 7.36508 16.9384 7.77358C16.9384 12.5872 13.016 16.5023 8.19352 16.5023C7.79013 16.5023 7.39023 16.4674 6.995 16.4138C8.2786 17.8907 10.1676 18.8299 12.2745 18.8299C13.5933 18.8299 14.8596 18.4679 15.958 17.7825L18.4719 18.788C18.5406 18.8159 18.6153 18.8299 18.6875 18.8299C18.8391 18.8299 18.9884 18.7706 19.1003 18.6589C19.266 18.4947 19.3149 18.248 19.2286 18.0315L18.2221 15.5223Z" fill="#AFAFAF"/>
</svg>
