<svg width="7" height="13" viewBox="0 0 7 13" fill="none" xmlns="http://www.w3.org/2000/svg">
<path d="M0.219428 6.95526L5.55875 12.5692C5.86956 12.8758 6.345 12.8758 6.63761 12.5692C6.93016 12.2627 6.93016 11.7454 6.63761 11.4388L1.82857 6.39965L6.63761 1.36054C6.93016 1.03486 6.93016 0.536673 6.63761 0.230066C6.34505 -0.0764854 5.86963 -0.0764854 5.55875 0.230066L0.219428 5.82483C-0.0731273 6.15051 -0.0731273 6.64869 0.219428 6.9553V6.95526Z" fill="white"/>
<path d="M0.219428 6.95526L5.55875 12.5692C5.86956 12.8758 6.345 12.8758 6.63761 12.5692C6.93016 12.2627 6.93016 11.7454 6.63761 11.4388L1.82857 6.39965L6.63761 1.36054C6.93016 1.03486 6.93016 0.536673 6.63761 0.230066C6.34505 -0.0764854 5.86963 -0.0764854 5.55875 0.230066L0.219428 5.82483C-0.0731273 6.15051 -0.0731273 6.64869 0.219428 6.9553V6.95526Z" stroke="white"/>
</svg>
