<svg width="22" height="20" viewBox="0 0 22 20" fill="none" xmlns="http://www.w3.org/2000/svg">
<path d="M16.4744 16.526C16.787 16.3568 17.0523 16.1101 17.253 15.7965C17.4537 15.483 17.5632 15.141 17.581 14.7921M16.4744 16.526L13.3855 16.8359C13.2772 17.5052 12.9524 18.1034 12.4837 18.5608C11.9027 19.1282 11.0993 19.4784 10.2134 19.4784C9.32742 19.4784 8.52407 19.1277 7.94304 18.5608L7.97796 18.525L7.94304 18.5608C7.47435 18.1035 7.14939 17.5052 7.04121 16.8359H4.99844C4.61266 16.8359 4.24932 16.7438 3.9285 16.57C3.60827 16.3967 3.33681 16.144 3.13165 15.8235L3.13162 15.8234C2.92697 15.5028 2.81474 15.1526 2.79582 14.7948L2.79582 14.7947C2.7776 14.4402 2.85424 14.0822 3.02546 13.7421L3.02547 13.7421L4.05796 11.6929L4.05799 11.6929C4.10019 11.6094 4.1308 11.5275 4.15044 11.4441L4.15129 11.4405L4.15141 11.4405C4.16966 11.361 4.1787 11.2749 4.1787 11.1783V9.0146C4.1787 7.39466 4.85787 5.92233 5.9514 4.85532C7.04441 3.78841 8.55458 3.12629 10.214 3.12629C11.8732 3.12629 13.3817 3.78843 14.4753 4.85531C15.5689 5.92172 16.248 7.39443 16.248 9.01461V11.1783C16.248 11.2756 16.2572 11.3624 16.2763 11.4422L16.2764 11.4426L16.2797 11.4573C16.2797 11.4574 16.2798 11.4576 16.2798 11.4578C16.2996 11.5368 16.3289 11.614 16.3687 11.6929L16.3688 11.6929L17.4013 13.7421C17.5725 14.0816 17.6491 14.4396 17.6309 14.7947C17.6309 14.7947 17.6309 14.7947 17.6309 14.7947L17.581 14.7921M16.4744 16.526C16.1607 16.6958 15.8055 16.7859 15.4283 16.7859H13.3426L16.4744 16.526ZM17.581 14.7921C17.5987 14.4462 17.5241 14.0967 17.3566 13.7646L17.581 14.7921ZM4.14507 0.547697L4.14521 0.547653C4.40645 0.461358 4.69206 0.597695 4.78117 0.85487L4.78117 0.854882C4.87057 1.11309 4.72843 1.39135 4.46674 1.47841C4.008 1.63138 3.596 1.885 3.25842 2.21144L3.25842 2.21144C2.91977 2.53895 2.6565 2.9397 2.4963 3.38509C2.40448 3.64142 2.11834 3.77523 1.85832 3.68637C1.85831 3.68636 1.85829 3.68636 1.85828 3.68635L1.87445 3.63904C1.6388 3.55873 1.5145 3.30747 1.59682 3.07769L4.14507 0.547697ZM4.14507 0.547697C3.54047 0.749264 2.99761 1.08384 2.55242 1.51466L4.14507 0.547697ZM15.6469 0.854398L15.647 0.854332C15.7362 0.597173 16.0217 0.460982 16.2829 0.54713L16.283 0.547168C16.8876 0.748197 17.4309 1.0827 17.8761 1.5134L17.8414 1.54934L17.8761 1.51341C18.3201 1.94308 18.6672 2.47114 18.8788 3.05949L18.8788 3.05956C18.9708 3.31663 18.8314 3.59622 18.5702 3.68509C18.5702 3.68509 18.5702 3.6851 18.5702 3.6851L18.5541 3.63776C18.3184 3.71807 18.0609 3.59613 17.9793 3.36689L15.6469 0.854398ZM15.6469 0.854398C15.5577 1.11258 15.6996 1.39133 15.9614 1.47789C16.4202 1.63087 16.8327 1.88376 17.1701 2.21016L17.1701 2.21017C17.5088 2.53763 17.772 2.93835 17.9322 3.38373L15.6469 0.854398ZM4.79499 3.72863L4.79499 3.72863C5.49102 3.0494 6.45068 2.62805 7.50572 2.62805C7.78201 2.62805 8.00859 2.40873 8.00859 2.1362C8.00859 1.86371 7.78258 1.64435 7.50572 1.64435C6.17328 1.64435 4.96194 2.17595 4.0845 3.03203L4.08449 3.03203C3.20707 3.88827 2.66171 5.0705 2.66171 6.37163C2.66171 6.64413 2.88771 6.86348 3.16458 6.86348C3.44087 6.86348 3.66745 6.64415 3.66745 6.37163C3.66745 5.34344 4.09897 4.4077 4.79499 3.72863ZM15.6338 3.7287L15.6338 3.72872C16.3299 4.40723 16.7613 5.34295 16.7613 6.37171C16.7613 6.64424 16.9879 6.86356 17.2642 6.86356C17.5405 6.86356 17.7671 6.64422 17.7671 6.37171C17.7671 5.07059 17.2224 3.88821 16.3442 3.03209C15.4661 2.17606 14.2555 1.64446 12.9231 1.64446C12.6468 1.64446 12.4202 1.86322 12.4202 2.13631C12.4202 2.4088 12.6462 2.62816 12.9231 2.62816C13.9781 2.62816 14.9377 3.04962 15.6338 3.7287ZM11.7746 17.8639L11.7746 17.8639C11.3758 18.2536 10.8241 18.4943 10.2147 18.4943C9.6054 18.4943 9.05361 18.2529 8.65485 17.8639C8.3694 17.5854 8.16233 17.2314 8.06726 16.8356H12.3622C12.2671 17.2318 12.0601 17.5853 11.7746 17.8639ZM5.13111 11.6658L5.13118 11.6655C5.16887 11.5067 5.18704 11.3464 5.18704 11.178V9.01437C5.18704 7.66674 5.75215 6.44105 6.66378 5.55169C7.57543 4.6623 8.83229 4.1104 10.2146 4.1104C11.5971 4.1104 12.8539 4.6623 13.7655 5.55169C14.6771 6.44113 15.2425 7.66667 15.2425 9.01422V11.1779C15.2425 11.3468 15.2607 11.5066 15.2984 11.6654L15.2983 11.6654L15.2986 11.6663L15.3039 11.6868C15.3039 11.6869 15.3039 11.6869 15.3039 11.687C15.341 11.8347 15.3956 11.9784 15.4693 12.1246L16.5018 14.1737C16.5964 14.3623 16.6381 14.5576 16.6285 14.7483C16.619 14.9359 16.5575 15.1245 16.4433 15.3039C16.3286 15.4832 16.1815 15.6209 16.0124 15.7125L16.0123 15.7125C15.8445 15.804 15.6469 15.8525 15.4288 15.8525H5.0002C4.78216 15.8525 4.58442 15.8035 4.41662 15.7125L4.41654 15.7124C4.24693 15.6208 4.09976 15.4831 3.98568 15.3039C3.87152 15.1245 3.81002 14.9359 3.80045 14.7483L3.80044 14.7481C3.79021 14.5571 3.83198 14.3624 3.92715 14.1738L3.92717 14.1738L4.95967 12.1246L4.95969 12.1246C5.03692 11.9709 5.09337 11.8207 5.13111 11.6658Z" fill="white" stroke="white" stroke-width="0.1"/>
<path d="M1.92826 17.8573L19.2137 0.570809" stroke="white" stroke-width="0.8" stroke-linecap="round"/>
</svg>
