<svg width="15" height="14" viewBox="0 0 15 14" fill="none" xmlns="http://www.w3.org/2000/svg">
<path fill-rule="evenodd" clip-rule="evenodd" d="M9.05442 1.89812C9.04575 1.9052 9.03768 1.91272 9.02914 1.92025C9.02095 1.92834 9.0124 1.93642 9.00482 1.94439L0.726992 9.64341C0.562046 9.79693 0.454653 9.9966 0.421181 10.2115L0.0112195 12.8494C-0.037781 13.1634 0.0755109 13.4808 0.316066 13.7052C0.556621 13.9297 0.896996 14.0352 1.2341 13.9895L4.1925 13.588C4.32361 13.584 4.45364 13.5351 4.55395 13.4416L14.6829 4.02101C15.0999 3.63366 15.1064 3.00579 14.698 2.61036L12.3188 0.307986C12.1176 0.11381 11.842 0.00262989 11.5524 4.23686e-05C11.2633 -0.00242834 10.9849 0.10325 10.7805 0.293381L9.05442 1.89812ZM9.40875 2.9894L1.48846 10.3558L1.0785 12.9937L3.92218 12.6078L11.8274 5.25612L9.40875 2.9894ZM10.1732 2.27906L12.5911 4.54561L13.9213 3.30847L11.5421 1.00609L10.1732 2.27906Z" fill="white"/>
</svg>
