<svg width="13" height="18" viewBox="0 0 13 18" fill="none" xmlns="http://www.w3.org/2000/svg">
<path d="M1.82495 7.44678C0.823521 7.44678 0 8.27011 0 9.27173V15.3186C0 16.3203 0.823521 17.1438 1.82495 17.1438H10.9563C11.9577 17.1438 12.7813 16.3203 12.7813 15.3186V9.27173C12.7813 8.27011 11.9577 7.44678 10.9563 7.44678H1.82495ZM1.82495 8.68164H10.9563C11.2944 8.68164 11.5464 8.93365 11.5464 9.27173V15.3186C11.5464 15.6567 11.2944 15.9087 10.9563 15.9087H1.82495C1.48704 15.9087 1.23505 15.6567 1.23505 15.3186V9.27173C1.23505 8.93363 1.48706 8.68164 1.82495 8.68164Z" fill="white"/>
<path d="M4.06971 0.621084C2.6351 1.44941 1.75196 2.97967 1.75196 4.63613V7.78734C1.75049 8.1282 2.02549 8.40578 2.36635 8.40781C2.53098 8.40836 2.68918 8.34324 2.8058 8.2268C2.92224 8.11018 2.98736 7.95198 2.98681 7.78735V4.63614C2.98681 3.41931 3.63633 2.3002 4.69017 1.69189C5.74401 1.08338 7.03698 1.08338 8.09064 1.69189C9.14448 2.3002 9.794 3.41936 9.794 4.63614V7.78735C9.79271 8.12821 10.0675 8.40579 10.4084 8.40782C10.5732 8.40837 10.7314 8.34325 10.848 8.22681C10.9645 8.11018 11.0296 7.95199 11.029 7.78736V4.63615C11.029 2.97968 10.1457 1.44943 8.71128 0.621102C7.27666 -0.207034 5.50417 -0.207034 4.06974 0.621102L4.06971 0.621084Z" fill="white"/>
<path d="M6.39022 9.59399C6.06537 9.59399 5.75374 9.72294 5.52398 9.95269C5.29423 10.1824 5.16528 10.4939 5.16528 10.8187C5.16565 11.2545 5.39724 11.6572 5.77379 11.8763V14.3695C5.77544 14.7077 6.04879 14.9816 6.38705 14.9842C6.55095 14.9852 6.70841 14.921 6.82503 14.8056C6.94147 14.6903 7.00732 14.5334 7.00824 14.3695V11.8763C7.38405 11.6566 7.6151 11.2542 7.6151 10.8188C7.6151 10.4939 7.48615 10.1825 7.2564 9.95271C7.02665 9.72296 6.71505 9.59401 6.39017 9.59401L6.39022 9.59399Z" fill="white"/>
</svg>
