<svg width="20" height="19" viewBox="0 0 20 19" fill="none" xmlns="http://www.w3.org/2000/svg">
<path d="M10.25 0.95C5.1198 0.95 0.95 4.92495 0.95 9.81466C0.95 14.7044 5.1198 18.6793 10.25 18.6793C15.3801 18.6793 19.5499 14.7044 19.5499 9.81466C19.5499 4.92495 15.3801 0.95 10.25 0.95ZM10.25 17.6742C5.68089 17.6742 1.98929 14.1527 1.98929 9.81466C1.98929 5.47658 5.68089 1.95508 10.25 1.95508C14.8191 1.95508 18.5106 5.47658 18.5106 9.81466C18.5106 14.1527 14.8191 17.6742 10.25 17.6742Z" fill="white" stroke="white" stroke-width="0.1"/>
<path d="M5.56275 8.83004H5.56279L5.5627 8.82797C5.54367 8.36819 5.94582 7.97489 6.45211 7.97489C6.93674 7.97489 7.34147 8.3675 7.34147 8.83004C7.34147 9.07583 7.54937 9.27352 7.79982 9.27352C8.05029 9.27352 8.25818 9.07581 8.25818 8.83004C8.25818 7.85593 7.43728 7.08794 6.45211 7.08794C5.46655 7.08794 4.64604 7.87594 4.64604 8.83004C4.64604 9.07583 4.85394 9.27352 5.1044 9.27352C5.35485 9.27352 5.56275 9.07581 5.56275 8.83004Z" fill="white" stroke="white" stroke-width="0.1"/>
<path d="M14.0479 7.08794C13.0416 7.08794 12.2419 7.87631 12.2419 8.83004H15.804L15.854 8.83112C15.854 8.83094 15.854 8.83076 15.854 8.83058C15.8747 7.85529 15.0527 7.08794 14.0479 7.08794Z" fill="white" stroke="white" stroke-width="0.1"/>
<path d="M6.27293 11.0924L6.27294 11.0924L6.2725 11.0915C6.1592 10.8514 5.8857 10.741 5.63547 10.8506C5.38832 10.9589 5.2703 11.2234 5.38548 11.4682C6.23119 13.3558 8.14834 14.5667 10.2703 14.5667C12.3923 14.5667 14.3099 13.3556 15.1351 11.4673L15.1354 11.4665C15.2285 11.2425 15.1118 10.959 14.8644 10.8506L14.8548 10.8464H14.8544C14.6096 10.7453 14.3187 10.8513 14.2263 11.0937C13.5401 12.6287 11.9864 13.6207 10.2499 13.6207C8.51287 13.6207 6.95884 12.6283 6.27293 11.0924Z" fill="white" stroke="white" stroke-width="0.1"/>
</svg>
