<svg width="350" height="350" xmlns="http://www.w3.org/2000/svg" xmlns:xlink="http://www.w3.org/1999/xlink" version="1.1">
 <defs>
  <symbol overflow="visible" id="h">
   <path fill="white" id="svg_1" d="m39.078,-2.3281c-2.0117,1.043 -4.1094,1.8281 -6.2969,2.3594s-4.4648,0.79688 -6.8281,0.79688c-7.0859,0 -12.699,-1.9766 -16.844,-5.9375c-4.1367,-3.957 -6.2031,-9.3281 -6.2031,-16.109c0,-6.7891 2.0664,-12.164 6.2031,-16.125c4.1445,-3.9688 9.7578,-5.9531 16.844,-5.9531c2.3633,0 4.6406,0.26562 6.8281,0.79688s4.2852,1.3242 6.2969,2.375l0,8.7969c-2.0312,-1.3828 -4.0391,-2.3984 -6.0156,-3.0469c-1.9688,-0.64453 -4.0469,-0.96875 -6.2344,-0.96875c-3.9062,0 -6.9844,1.2578 -9.2344,3.7656c-2.2422,2.5 -3.3594,5.9531 -3.3594,10.359c0,4.3867 1.1172,7.8359 3.3594,10.344c2.25,2.5 5.3281,3.75 9.2344,3.75c2.1875,0 4.2656,-0.32031 6.2344,-0.96875c1.9766,-0.64453 3.9844,-1.6602 6.0156,-3.0469l0,8.81224z"/>
  </symbol>
  <symbol overflow="visible" id="g">
   <path fill="white" id="svg_2" d="m16.031,-40.953l0,9.0625l10.516,0l0,7.2812l-10.516,0l0,13.531c0,1.4805 0.28906,2.4805 0.875,3c0.59375,0.52344 1.7656,0.78125 3.5156,0.78125l5.2344,0l0,7.2969l-8.7344,0c-4.0312,0 -6.8867,-0.83594 -8.5625,-2.5156c-1.6797,-1.6875 -2.5156,-4.5391 -2.5156,-8.5625l0,-13.531l-5.0781,0l0,-7.2812l5.0781,0l0,-9.0625l10.1875,-0.00005z"/>
  </symbol>
  <symbol overflow="visible" id="f">
   <path fill="white" id="svg_3" d="m26.594,-27.234l0,-17.078l10.266,0l0,44.312l-10.266,0l0,-4.6094c-1.3984,1.875 -2.9453,3.25 -4.6406,4.125c-1.6875,0.875 -3.6406,1.3125 -5.8594,1.3125c-3.9297,0 -7.1562,-1.5625 -9.6875,-4.6875c-2.5234,-3.125 -3.7812,-7.1445 -3.7812,-12.062c0,-4.9141 1.2578,-8.9375 3.7812,-12.062c2.5312,-3.125 5.7578,-4.6875 9.6875,-4.6875c2.1953,0 4.1445,0.44531 5.8438,1.3281c1.707,0.88672 3.2578,2.2578 4.6562,4.1094l0,-0.0006zm-6.7188,20.656c2.1875,0 3.8516,-0.79688 5,-2.3906c1.1445,-1.5938 1.7188,-3.9102 1.7188,-6.9531c0,-3.0391 -0.57422,-5.3594 -1.7188,-6.9531c-1.1484,-1.5938 -2.8125,-2.3906 -5,-2.3906c-2.168,0 -3.8242,0.79688 -4.9688,2.3906c-1.1484,1.5938 -1.7188,3.9141 -1.7188,6.9531c0,3.043 0.57031,5.3594 1.7188,6.9531c1.1445,1.5938 2.8008,2.3906 4.9688,2.3906z"/>
  </symbol>
  <symbol overflow="visible" id="e">
   <path fill="white" id="svg_4" d="m21.875,-6.5781c2.1758,0 3.8359,-0.79688 4.9844,-2.3906c1.1562,-1.5938 1.7344,-3.9102 1.7344,-6.9531c0,-3.0391 -0.57812,-5.3594 -1.7344,-6.9531c-1.1484,-1.5938 -2.8086,-2.3906 -4.9844,-2.3906c-2.1875,0 -3.8672,0.80469 -5.0312,2.4062c-1.168,1.6055 -1.75,3.918 -1.75,6.9375c0,3.0234 0.58203,5.3359 1.75,6.9375c1.1641,1.6055 2.8438,2.4062 5.0312,2.4062zm-6.7812,-20.656c1.4062,-1.8516 2.9609,-3.2227 4.6719,-4.1094c1.707,-0.88281 3.6719,-1.3281 5.8906,-1.3281c3.9375,0 7.1641,1.5625 9.6875,4.6875c2.5195,3.125 3.7812,7.1484 3.7812,12.062c0,4.918 -1.2617,8.9375 -3.7812,12.062c-2.5234,3.125 -5.75,4.6875 -9.6875,4.6875c-2.2188,0 -4.1836,-0.44531 -5.8906,-1.3281c-1.7109,-0.88281 -3.2656,-2.2539 -4.6719,-4.1094l0,4.6094l-10.188,0l0,-44.312l10.188,0l0,17.0786z"/>
  </symbol>
  <symbol overflow="visible" id="d">
   <path fill="white" id="svg_5" d="m16.312,-34.234l0,25.953l3.9375,0c4.4766,0 7.8984,-1.1094 10.266,-3.3281c2.3633,-2.2266 3.5469,-5.457 3.5469,-9.6875c0,-4.2188 -1.1797,-7.4258 -3.5312,-9.625c-2.3555,-2.207 -5.7812,-3.3125 -10.281,-3.3125l-3.9382,0.0001zm-10.953,-8.2812l11.562,0c6.4453,0 11.25,0.46094 14.406,1.375c3.1641,0.91797 5.8789,2.4805 8.1406,4.6875c2,1.918 3.4844,4.1328 4.4531,6.6406c0.96875,2.5 1.4531,5.3398 1.4531,8.5156c0,3.2109 -0.48438,6.0742 -1.4531,8.5938c-0.96875,2.5117 -2.4531,4.7266 -4.4531,6.6406c-2.2734,2.1992 -5.0078,3.7617 -8.2031,4.6875c-3.1875,0.91797 -7.9688,1.375 -14.344,1.375l-11.562,0l0.0005,-42.5156z"/>
  </symbol>
  <symbol overflow="visible" id="c">
   <path fill="white" id="svg_6" d="m4.9062,-31.891l10.188,0l0,31.891l-10.188,0l0,-31.891zm0,-12.422l10.188,0l0,8.3125l-10.188,0l0,-8.3125z"/>
  </symbol>
  <symbol overflow="visible" id="b">
   <path fill="white" id="svg_7" d="m4.9062,-44.312l10.188,0l0,44.312l-10.188,0l0,-44.312z"/>
  </symbol>
  <symbol overflow="visible" id="a">
   <path fill="white" id="svg_8" d="m0.28125,-42.516l39.188,0l0,8.2812l-14.094,0l0,34.234l-10.969,0l0,-34.234l-14.125,0l0,-8.2812z"/>
  </symbol>
 </defs>
 <g>
  <title>Layer 1</title>
  <g id="svg_9">
   <path fill="white" id="svg_10" d="m275.86243,231.11677c-1.7662,-2.63683 -4.68461,-4.2546 -7.8427,-4.34726c-2.71822,0.00993 -5.30836,1.15466 -7.15659,3.16288l-31.57082,31.81679c-1.85806,1.85602 -2.90202,4.38038 -2.90202,7.01721c0,2.63353 1.04396,5.1578 2.90202,7.01382c1.8384,1.87254 4.34651,2.92463 6.9596,2.92463c2.61645,0 5.12129,-1.05209 6.96296,-2.92463l14.99963,-15.11649l0,35.27407c0,2.62032 1.03412,5.13468 2.87252,6.9874s4.33332,2.8949 6.93338,2.8949s5.09498,-1.04218 6.93338,-2.8949s2.87252,-4.36708 2.87252,-6.9874l0,-34.98017l14.60884,15.21897c1.77604,2.09097 4.33996,3.3382 7.06801,3.44407c2.73133,0.10918 5.38055,-0.93961 7.31089,-2.88491c1.93361,-1.94868 2.97102,-4.61854 2.86596,-7.36785c-0.10505,-2.75261 -1.346,-5.3332 -3.42072,-7.12638l-30.39685,-31.12474z"/>
   <path fill="white" id="svg_11" d="m323.52205,210.36632c-4.52376,-4.61194 -9.63529,-8.59831 -15.19965,-11.8574c-3.44702,-2.15381 -7.09423,-3.97341 -10.88246,-5.43247c-9.34283,-3.83113 -19.32942,-5.80962 -29.41433,-5.82944c-2.21919,-0.20181 -4.44829,-0.20181 -6.66747,0c-2.30457,0.14226 -4.59603,0.44002 -6.86446,0.88668c-15.91231,2.66986 -30.59258,10.30916 -41.965,21.83879c-12.3994,12.50956 -20.2421,28.87615 -22.25404,46.44035c-0.47273,3.27205 -0.70253,6.57713 -0.68612,9.8823c-0.02298,3.30508 0.20682,6.61025 0.68612,9.8823c2.03211,17.47188 9.87817,33.73938 22.25404,46.14222c19.84459,19.9831 48.76056,27.77765 75.85031,20.44639c27.09312,-7.32813 48.24791,-28.66441 55.49644,-55.97539c7.24853,-27.31098 -0.51213,-56.44207 -20.35388,-76.42432l0.0005,0zm-13.92222,97.82354l-0.00329,0c-11.03037,11.10276 -25.98042,17.33975 -41.57085,17.33975s-30.54048,-6.2364 -41.57085,-17.33975c-8.67639,-8.66183 -14.40882,-19.86707 -16.37454,-32.01244l0,-9.8823c-0.0952,-14.61001 5.1639,-28.74403 14.77272,-39.68417s22.88771,-17.92161 37.28981,-19.60282c1.95983,-0.11248 3.92303,-0.11248 5.88287,0c15.5938,0.01324 30.54048,6.26613 41.56077,17.37956c11.02365,11.11631 17.21495,26.18622 17.21495,41.90151c0.00329,15.7119 -6.18491,30.7852 -17.2057,41.90151l0.00413,-0.00085z"/>
   <path fill="white" id="svg_12" d="m111.63802,135.76634c9.64538,0.02647 18.90921,-3.81131 25.74762,-10.66658c6.84144,-6.8584 10.69841,-16.1718 10.72531,-25.89487c0.02626,-9.72053 -3.78184,-19.05653 -10.58412,-25.94822c-6.80538,-6.89474 -16.04678,-10.78176 -25.69468,-10.80887c-9.64538,-0.02647 -18.90921,3.81131 -25.74762,10.66658c-6.84144,6.8584 -10.69841,16.1718 -10.72531,25.89487c0.02626,9.70697 3.85076,19.00995 10.64295,25.89148c6.79219,6.88483 16.00392,10.78854 25.63585,10.86477l0,0.00085z"/>
   <path fill="white" id="svg_13" d="m198.70444,196.44234c18.3411,-18.59664 43.30378,-29.02183 69.32033,-28.95238c6.94977,0.01985 13.88356,0.7477 20.68836,2.17363c3.12195,0.66169 6.2013,1.51859 9.21509,2.57068c2.60006,0.77417 5.15406,1.69722 7.64907,2.76582l2.74444,1.18438l0,-121.2419c-0.02626,-9.46898 -3.77529,-18.54074 -10.42948,-25.23c-6.65436,-6.6863 -15.66607,-10.44129 -25.06437,-10.44129l-223.15392,0c-9.40502,0.02647 -18.42009,3.8047 -25.06773,10.50735c-6.65108,6.7029 -10.40007,15.78474 -10.42612,25.26304l0,185.27186c0,9.49524 3.73587,18.60341 10.38998,25.3291c6.65436,6.72272 15.68204,10.51413 25.10387,10.54038l120.79205,0c0,-3.26214 -0.48914,-6.62016 -0.48914,-9.8823l-0.00329,0c0.00329,-3.30178 0.19698,-6.60364 0.59091,-9.8823c2.1601,-22.68574 12.1103,-43.89948 28.13691,-59.97811l0.00304,0.00203zm-149.0298,-157.40697l223.15392,0c4.22171,-0.02647 8.2761,1.65089 11.26317,4.65826c2.98413,3.00738 4.64847,7.09327 4.62225,11.34753l0,60.76917c-4.00833,-2.41188 -8.28593,-4.33735 -12.74733,-5.73017c-11.67749,-3.78818 -24.15841,-4.29102 -36.09811,-1.45236c-11.9397,2.83866 -22.88435,8.90999 -31.65318,17.55742l-48.04116,47.82682l-7.06137,-6.52419l-4.99976,-4.93945c-8.69992,-8.45966 -20.31774,-13.18373 -32.40535,-13.18373c-12.08761,0 -23.70543,4.72441 -32.40535,13.18373l-49.61357,49.4047l0.00329,-157.0089c0.02626,-4.24469 1.72351,-8.30746 4.72075,-11.28824c2.99724,-2.98417 7.04826,-4.64505 11.25981,-4.61854l0.00201,-0.00203z"/>
   <use transform="matrix(0.44144, 0, 0, 0.444879, -69.3008, 257.961)" fill="white" id="svg_14" xlink:href="#h" y="685.81828" x="33.80735"/>
   <use transform="matrix(0.44144, 0, 0, 0.444879, -69.3008, 257.961)" fill="white" id="svg_15" xlink:href="#g" y="685.81828" x="184.31126"/>
   <use transform="matrix(0.44144, 0, 0, 0.444879, -69.3008, 257.961)" fill="white" id="svg_16" xlink:href="#f" y="685.81828" x="251.76048"/>
   <use transform="matrix(0.44144, 0, 0, 0.444879, -69.3008, 257.961)" fill="white" id="svg_17" xlink:href="#e" y="685.81828" x="313.82298"/>
   <use transform="matrix(0.44144, 0, 0, 0.444879, -69.3008, 257.961)" fill="white" id="svg_18" xlink:href="#d" y="685.81828" x="413.91282"/>
   <use transform="matrix(0.44144, 0, 0, 0.444879, -69.3008, 257.961)" fill="white" id="svg_19" xlink:href="#c" y="685.81828" x="543.22532"/>
   <use transform="matrix(0.44144, 0, 0, 0.444879, -69.3008, 257.961)" fill="white" id="svg_20" xlink:href="#b" y="685.81828" x="602.78392"/>
   <use transform="matrix(0.44144, 0, 0, 0.444879, -69.3008, 257.961)" fill="white" id="svg_21" xlink:href="#a" y="685.81828" x="643.0886"/>
  </g>
 </g>
</svg>