<svg width="512" height="512" xmlns="http://www.w3.org/2000/svg" zoomAndPan="magnify" preserveAspectRatio="xMidYMid meet" version="1.0">
 <defs>
  <g id="svg_1"/>
  <clipPath id="43ab520160">
   <path d="m11.96875,150.45313l79.5,0l0,79.5l-79.5,0l0,-79.5zm0,0" clip-rule="nonzero" id="svg_2"/>
  </clipPath>
 </defs>
 <g>
  <title>Layer 1</title>
  <g id="svg_38">
   <path fill="#011942" d="m75.33799,227.45403c0,11.51804 1.22798,22.72191 3.47479,33.61169c5.66943,-4.424 12.07036,-7.80084 19.09832,-9.99977c-1.28015,-7.72229 -2.14234,-15.54933 -2.14234,-23.61192c0,-79.08185 64.24453,-143.45191 143.17201,-143.45191c8.04693,0 15.85863,0.83768 23.56592,2.12032c2.19457,-7.0417 5.56489,-13.45514 9.98026,-19.13566c-10.84245,-2.2512 -22.05061,-3.48158 -33.54618,-3.48158c-90.34466,0 -163.60278,73.40134 -163.60278,163.94882zm0,0" fill-rule="nonzero" id="svg_5"/>
   <path fill="#011942" d="m402.54354,227.45403c0,-34.44943 -10.63344,-66.33344 -28.71279,-92.69407c-3.63156,6.33497 -8.22979,11.88454 -13.79468,16.57029c13.89915,22.06752 22.05055,48.14013 22.05055,76.12378c0,79.05558 -64.21838,143.42571 -143.14586,143.42571c-27.92898,0 -53.92464,-8.16733 -76.00134,-22.09372c-4.65046,5.52343 -10.21535,10.18305 -16.51181,13.82164c26.33529,18.11476 58.15708,28.76892 92.51315,28.76892c90.34466,0 163.60278,-73.40127 163.60278,-163.92255zm0,0" fill-rule="nonzero" id="svg_6"/>
   <path fill="#011942" d="m279.82838,227.45403c0,2.67004 -0.26125,5.34015 -0.78381,7.98405c-0.52249,2.6439 -1.28015,5.20934 -2.3252,7.69616c-1.01897,2.48682 -2.27303,4.84284 -3.76218,7.0679c-1.51531,2.2512 -3.18739,4.31926 -5.09463,6.23016c-1.90724,1.88477 -3.97119,3.58632 -6.19192,5.07846c-2.24688,1.49207 -4.59823,2.77478 -7.08026,3.79567c-2.48197,1.02096 -5.04233,1.80623 -7.68108,2.32981c-2.63875,0.52351 -5.27756,0.78534 -7.96854,0.78534c-2.69098,0 -5.35588,-0.26182 -7.99462,-0.78534c-2.61266,-0.52358 -5.17302,-1.30885 -7.65499,-2.32981c-2.48204,-1.02089 -4.83339,-2.30361 -7.08026,-3.79567c-2.22073,-1.49213 -4.28468,-3.19369 -6.19192,-5.07846c-1.90718,-1.91091 -3.60541,-3.97896 -5.09463,-6.23016c-1.48916,-2.22507 -2.74322,-4.58108 -3.78827,-7.0679c-1.01897,-2.48682 -1.8027,-5.05225 -2.32526,-7.69616c-0.52249,-2.6439 -0.78381,-5.31401 -0.78381,-7.98405c0,-2.69631 0.26131,-5.36642 0.78381,-8.01032c0.52256,-2.6439 1.3063,-5.20927 2.32526,-7.69609c1.04505,-2.48689 2.29911,-4.84284 3.78827,-7.0679c1.48922,-2.25127 3.18746,-4.31926 5.09463,-6.20402c1.90724,-1.91097 3.97119,-3.61253 6.19192,-5.10459c2.24688,-1.49213 4.59823,-2.74865 7.08026,-3.79574c2.48197,-1.02089 5.04233,-1.80623 7.65499,-2.32974c2.63875,-0.52358 5.30364,-0.78534 7.99462,-0.78534c2.69098,0 5.32979,0.26176 7.96854,0.78534c2.63875,0.52351 5.1991,1.30885 7.68108,2.32974c2.48204,1.04709 4.83339,2.30361 7.08026,3.79574c2.22073,1.49207 4.28468,3.19362 6.19192,5.10459c1.90724,1.88477 3.57933,3.95276 5.09463,6.20402c1.48916,2.22507 2.74322,4.58101 3.76218,7.0679c1.04505,2.48682 1.8027,5.05219 2.3252,7.69609c0.52256,2.6439 0.78381,5.31401 0.78381,8.01032zm0,0" fill-rule="nonzero" id="svg_7"/>
   <path fill="#011942" d="m361.62977,104.49897c0,2.69624 -0.26125,5.36635 -0.78381,7.98412c-0.52249,2.6439 -1.28015,5.20927 -2.3252,7.69609c-1.01897,2.48689 -2.27303,4.84284 -3.76218,7.09411c-1.48922,2.22507 -3.18746,4.29305 -5.09463,6.20402c-1.90724,1.91091 -3.97119,3.61246 -6.19192,5.10459c-2.24688,1.49207 -4.59823,2.74858 -7.08026,3.76954c-2.48197,1.04709 -5.04233,1.80623 -7.68108,2.32974c-2.61266,0.52358 -5.27756,0.78534 -7.96854,0.78534c-2.69098,0 -5.35588,-0.26176 -7.96854,-0.78534c-2.63875,-0.52351 -5.1991,-1.28265 -7.68108,-2.32974c-2.48204,-1.02096 -4.83339,-2.27747 -7.08026,-3.76954c-2.22073,-1.49213 -4.28468,-3.19369 -6.19192,-5.10459c-1.90724,-1.91097 -3.60541,-3.97896 -5.09463,-6.20402c-1.48916,-2.25127 -2.74322,-4.60721 -3.76218,-7.09411c-1.04505,-2.48682 -1.8027,-5.05219 -2.35135,-7.69609c-0.52256,-2.61777 -0.78381,-5.28788 -0.78381,-7.98412c0,-2.69624 0.26125,-5.36635 0.78381,-8.01025c0.54864,-2.61777 1.3063,-5.18313 2.35135,-7.66996c1.01897,-2.48689 2.27303,-4.84284 3.76218,-7.09411c1.48922,-2.22507 3.18739,-4.29305 5.09463,-6.20402c1.90724,-1.91097 3.97119,-3.61246 6.19192,-5.10459c2.24688,-1.49207 4.59823,-2.74858 7.08026,-3.76954c2.48197,-1.04709 5.04233,-1.80623 7.68108,-2.35595c2.61266,-0.52358 5.27756,-0.78534 7.96854,-0.78534c2.69098,0 5.35588,0.26176 7.96854,0.78534c2.63875,0.54972 5.1991,1.30885 7.68108,2.35595c2.48204,1.02096 4.83339,2.27747 7.08026,3.76954c2.22073,1.49213 4.28468,3.19362 6.19192,5.10459c1.90718,1.91097 3.60541,3.97896 5.09463,6.20402c1.48916,2.25127 2.74322,4.60721 3.76218,7.09411c1.04505,2.48682 1.8027,5.05219 2.3252,7.66996c0.52256,2.6439 0.78381,5.31401 0.78381,8.01025zm0,0" fill-rule="nonzero" id="svg_8"/>
   <path fill="#011942" d="m157.13937,309.41527c0,2.67011 -0.26125,5.34021 -0.78381,7.98412c-0.52249,2.6439 -1.3063,5.20927 -2.3252,7.69616c-1.04505,2.48682 -2.29911,4.84277 -3.78834,7.0679c-1.48916,2.2512 -3.18739,4.31926 -5.09463,6.23016c-1.88109,1.88477 -3.97119,3.58632 -6.19192,5.07846c-2.22073,1.49207 -4.59823,2.77478 -7.0802,3.79567c-2.48204,1.02096 -5.0424,1.80623 -7.65499,2.32981c-2.63875,0.52351 -5.30364,0.78534 -7.99469,0.78534c-2.69098,0 -5.32973,-0.26182 -7.96847,-0.78534c-2.63875,-0.52358 -5.19917,-1.30885 -7.68114,-2.32981c-2.48197,-1.02089 -4.83339,-2.30361 -7.0802,-3.79567c-2.22073,-1.49213 -4.28474,-3.19369 -6.19192,-5.07846c-1.88109,-1.91091 -3.57933,-3.97896 -5.06855,-6.23016c-1.51531,-2.22513 -2.76937,-4.58108 -3.78827,-7.0679c-1.01897,-2.48689 -1.8027,-5.05225 -2.32526,-7.69616c-0.52249,-2.6439 -0.78381,-5.31401 -0.78381,-7.98412c0,-2.69624 0.26131,-5.36635 0.78381,-8.01025c0.52256,-2.6439 1.3063,-5.20927 2.32526,-7.66996c1.0189,-2.48682 2.27296,-4.86897 3.78827,-7.09404c1.48922,-2.25127 3.18746,-4.31926 5.06855,-6.20402c1.90718,-1.91097 3.97119,-3.61253 6.19192,-5.10459c2.24681,-1.49213 4.59823,-2.74865 7.0802,-3.79574c2.48197,-1.02089 5.0424,-1.80623 7.68114,-2.32981c2.63875,-0.52351 5.27749,-0.78527 7.96847,-0.78527c2.69105,0 5.35595,0.26176 7.99469,0.78527c2.61259,0.52358 5.17295,1.30892 7.65499,2.32981c2.48197,1.04709 4.85947,2.30361 7.0802,3.79574c2.22073,1.49207 4.31083,3.19362 6.19192,5.10459c1.90724,1.88477 3.60548,3.95276 5.09463,6.20402c1.48922,2.22507 2.74328,4.60721 3.78834,7.09404c1.0189,2.46069 1.8027,5.02605 2.3252,7.66996c0.52256,2.6439 0.78381,5.31401 0.78381,8.01025zm0,0" fill-rule="nonzero" id="svg_9"/>
   <path fill="#011942" d="m443.45731,411.84729c0,2.69624 -0.26131,5.36635 -0.80996,8.01025c-0.52249,2.6439 -1.28015,5.20934 -2.3252,7.69616c-1.01897,2.48682 -2.27303,4.84284 -3.76218,7.0679c-1.48922,2.25127 -3.18746,4.31926 -5.09463,6.20402c-1.90724,1.91097 -3.97119,3.61246 -6.19192,5.10459c-2.24688,1.49207 -4.59823,2.74858 -7.08026,3.79567c-2.48197,1.02096 -5.04233,1.8063 -7.68114,2.32981c-2.61259,0.52358 -5.27749,0.78534 -7.96847,0.78534c-2.69105,0 -5.35588,-0.26176 -7.96854,-0.78534c-2.63875,-0.52351 -5.1991,-1.30885 -7.68114,-2.32981c-2.48197,-1.04709 -4.83332,-2.30361 -7.0802,-3.79567c-2.22073,-1.49213 -4.28468,-3.19362 -6.19192,-5.10459c-1.90724,-1.88477 -3.60541,-3.95276 -5.09463,-6.20402c-1.48922,-2.22507 -2.74328,-4.58108 -3.76218,-7.0679c-1.04505,-2.48682 -1.8027,-5.05225 -2.32526,-7.69616c-0.54864,-2.6439 -0.80989,-5.31401 -0.80989,-8.01025c0,-2.67011 0.26125,-5.34015 0.80989,-7.98412c0.52256,-2.6439 1.28021,-5.20927 2.32526,-7.69609c1.0189,-2.48689 2.27296,-4.84284 3.76218,-7.0679c1.48922,-2.25127 3.18739,-4.31926 5.09463,-6.23023c1.90724,-1.88477 3.97119,-3.58626 6.19192,-5.07839c2.24688,-1.49213 4.59823,-2.77478 7.0802,-3.79574c2.48204,-1.02089 5.0424,-1.80623 7.68114,-2.32974c2.61266,-0.52358 5.27749,-0.78534 7.96854,-0.78534c2.69098,0 5.35588,0.26176 7.96847,0.78534c2.63881,0.52351 5.19917,1.30885 7.68114,2.32974c2.48204,1.02096 4.83339,2.30361 7.08026,3.79574c2.22073,1.49213 4.28468,3.19362 6.19192,5.07839c1.90718,1.91097 3.60541,3.97896 5.09463,6.23023c1.48916,2.22507 2.74322,4.58101 3.76218,7.0679c1.04505,2.48682 1.8027,5.05219 2.3252,7.69609c0.54864,2.64397 0.80996,5.31401 0.80996,7.98412zm0,0" fill-rule="nonzero" id="svg_10"/>
  </g>
 </g>
</svg>