<svg width="700" height="700" xmlns="http://www.w3.org/2000/svg" version="1.1">

 <g>
  <title>Layer 1</title>
  <g id="svg_1">
   <path id="svg_2" d="m628.33333,103l0,280l-112,0l0,28l112,0c15.484,0 28,-12.516 28,-28l0,-280c0,-15.484 -12.516,-28 -28,-28l-392,0c-15.484,0 -28,12.516 -28,28l0,84l28,0l0,-84l392,0z" fill="white"/>
   <path id="svg_3" d="m656.33333,439l-140,0l0,56l140,0c15.484,0 28,-12.516 28,-28s-12.516,-28 -28,-28z" fill="white"/>
   <path id="svg_4" d="m68.33333,215c-15.484,0 -28,12.516 -28,28l0,280c0,15.484 12.516,28 28,28l392,0c15.484,0 28,-12.516 28,-28l0,-280c0,-15.484 -12.516,-28 -28,-28l-392,0zm392,308l-392,0l0,-280l392,0l0,280z" fill="white"/>
   <path id="svg_5" d="m40.33333,635l448,0c15.484,0 28,-12.516 28,-28s-12.516,-28 -28,-28l-448,0c-15.484,0 -28,12.516 -28,28s12.516,28 28,28z" fill="white"/>
  </g>
 </g>
</svg>