<svg width="17" height="14" viewBox="0 0 17 14" fill="none" xmlns="http://www.w3.org/2000/svg">
<path d="M5.36396 0.847209C5.36352 0.689105 5.29148 0.552826 5.14785 0.438559C5.01145 0.328806 4.84446 0.273766 4.64677 0.273438H0.717174L0.44208 0.312798C0.358421 0.34273 0.27981 0.384614 0.206349 0.438559C0.139029 0.497329 0.0866195 0.560152 0.04912 0.627146L0 0.847198V13.4219C0 13.5773 0.0687454 13.7109 0.206349 13.8228L0.216107 13.8305C0.353707 13.9406 0.520707 13.9957 0.717187 13.9957H4.64678C4.84447 13.9953 5.01145 13.9377 5.14786 13.8228C5.29149 13.7137 5.36353 13.58 5.36397 13.4219C5.36353 13.2638 5.29149 13.1275 5.14786 13.0133C5.01147 12.9035 4.84447 12.8485 4.64678 12.8481H1.43434V1.42087H4.64678C4.84447 1.42054 5.01145 1.36287 5.14786 1.24796C5.29149 1.13886 5.36353 1.00521 5.36397 0.847112M16.3668 6.89083C16.3472 6.8541 16.321 6.82011 16.2882 6.78864L12.3881 2.10457C12.2767 1.96828 12.1261 1.88714 11.9361 1.86094C11.7397 1.82947 11.5596 1.85831 11.3958 1.94734C11.2255 2.03121 11.124 2.15171 11.0913 2.30883C11.052 2.4608 11.088 2.60487 11.1993 2.74114L14.3823 6.56071H3.92958C3.7331 6.56071 3.56612 6.61838 3.42861 6.73362C3.28443 6.8437 3.2124 6.97725 3.2124 7.13447C3.2124 7.29169 3.28443 7.42787 3.42861 7.54312C3.5661 7.6532 3.7331 7.70824 3.92958 7.70824H14.3823L11.1993 11.5357C11.088 11.6666 11.052 11.8108 11.0913 11.9679C11.124 12.1198 11.2255 12.2403 11.3958 12.3294C11.5596 12.4132 11.7397 12.4421 11.9361 12.4159C12.126 12.3844 12.2767 12.3033 12.3881 12.1722L16.2784 7.49602C16.3308 7.44361 16.3702 7.38605 16.3964 7.32311C16.4094 7.28649 16.4226 7.25239 16.4356 7.22093V7.1581V7.13453C16.4356 7.0978 16.4323 7.06118 16.4258 7.02445C16.4226 7.01403 16.4193 7.0035 16.416 6.99309C16.4028 6.96162 16.3898 6.93278 16.3766 6.90658L16.3668 6.89083Z" fill="#838383"/>
</svg>
